<svg width="971" height="510" viewBox="0 0 971 510" fill="none" xmlns="http://www.w3.org/2000/svg">
<g clip-path="url(#clip0)">
<g opacity="0.1">
<path opacity="0.1" d="M424.588 333.9C430.154 333.9 434.667 327.992 434.667 320.704C434.667 313.416 430.154 307.508 424.588 307.508C419.022 307.508 414.51 313.416 414.51 320.704C414.51 327.992 419.022 333.9 424.588 333.9Z" fill="#3F3D56"/>
<path opacity="0.1" d="M432.568 264.245C433.974 261.791 434.701 259.006 434.675 256.177C434.675 248.889 430.159 242.981 424.588 242.981C419.017 242.981 414.474 248.906 414.474 256.195C414.448 259.024 415.176 261.808 416.582 264.263C415.2 266.726 414.475 269.503 414.475 272.327C414.475 275.151 415.2 277.927 416.582 280.39C415.2 282.853 414.475 285.63 414.475 288.454C414.475 291.278 415.2 294.055 416.582 296.518C415.174 298.971 414.446 301.757 414.474 304.586C414.474 311.866 418.991 317.782 424.553 317.782C430.114 317.782 434.64 311.866 434.64 304.586C434.668 301.757 433.941 298.971 432.532 296.518C433.914 294.055 434.64 291.278 434.64 288.454C434.64 285.63 433.914 282.853 432.532 280.39C433.914 277.927 434.64 275.151 434.64 272.327C434.64 269.503 433.914 266.726 432.532 264.263L432.568 264.245Z" fill="#3F3D56"/>
<path opacity="0.1" d="M424.588 253.263C430.154 253.263 434.667 247.355 434.667 240.067C434.667 232.78 430.154 226.872 424.588 226.872C419.022 226.872 414.51 232.78 414.51 240.067C414.51 247.355 419.022 253.263 424.588 253.263Z" fill="#3F3D56"/>
<path opacity="0.1" d="M424.588 237.136C430.154 237.136 434.667 231.228 434.667 223.94C434.667 216.652 430.154 210.744 424.588 210.744C419.022 210.744 414.51 216.652 414.51 223.94C414.51 231.228 419.022 237.136 424.588 237.136Z" fill="#3F3D56"/>
<path opacity="0.1" d="M386.86 113.564C385.479 111.814 384.224 109.967 383.105 108.038L409.586 103.689L380.944 103.902C378.202 97.9204 376.709 91.4422 376.557 84.8638C376.405 78.2853 377.596 71.745 380.059 65.6429L418.486 85.5784L383.061 59.5232C386.354 53.7334 390.81 48.6875 396.148 44.7027C401.485 40.7179 407.589 37.8803 414.076 36.3684C420.564 34.8565 427.293 34.7029 433.843 35.9173C440.392 37.1317 446.619 39.6878 452.133 43.4249C457.647 47.1621 462.328 51.9995 465.882 57.633C469.436 63.2665 471.787 69.5744 472.786 76.1601C473.784 82.7458 473.41 89.4668 471.686 95.9008C469.962 102.335 466.925 108.343 462.768 113.547C464.915 116.274 466.762 119.226 468.276 122.35L433.887 140.257L470.543 127.956C473.12 135.565 473.757 143.697 472.398 151.614C471.038 159.532 467.725 166.986 462.759 173.3C468.361 180.422 471.847 188.977 472.817 197.986C473.786 206.996 472.201 216.097 468.243 224.248C464.284 232.399 458.111 239.272 450.431 244.08C442.75 248.888 433.871 251.438 424.809 251.438C415.748 251.438 406.869 248.888 399.188 244.08C391.508 239.272 385.335 232.399 381.376 224.248C377.418 216.097 375.833 206.996 376.802 197.986C377.772 188.977 381.258 180.422 386.86 173.3C380.165 164.789 376.524 154.274 376.524 143.445C376.524 132.616 380.165 122.102 386.86 113.591V113.564Z" fill="#6C63FF"/>
<path opacity="0.1" d="M473.094 143.419C473.111 154.251 469.469 164.771 462.759 173.273C468.361 180.395 471.847 188.95 472.817 197.96C473.786 206.969 472.201 216.07 468.243 224.221C464.284 232.372 458.111 239.245 450.431 244.053C442.75 248.862 433.871 251.411 424.809 251.411C415.748 251.411 406.869 248.862 399.188 244.053C391.508 239.245 385.335 232.372 381.376 224.221C377.418 216.07 375.832 206.969 376.802 197.96C377.772 188.95 381.258 180.395 386.86 173.273C380.386 165.055 473.094 137.999 473.094 143.419Z" fill="black"/>
</g>
<g opacity="0.1">
<path opacity="0.1" d="M542.253 302.344C546.415 302.344 549.789 297.931 549.789 292.487C549.789 287.044 546.415 282.63 542.253 282.63C538.09 282.63 534.716 287.044 534.716 292.487C534.716 297.931 538.09 302.344 542.253 302.344Z" fill="#3F3D56"/>
<path opacity="0.1" d="M548.204 250.305C549.252 248.472 549.793 246.394 549.772 244.283C549.772 238.836 546.398 234.417 542.244 234.417C538.09 234.417 534.707 238.845 534.707 244.283C534.684 246.395 535.229 248.475 536.284 250.305C535.25 252.146 534.708 254.221 534.708 256.332C534.708 258.443 535.25 260.518 536.284 262.359C535.25 264.199 534.708 266.274 534.708 268.385C534.708 270.496 535.25 272.571 536.284 274.412C535.229 276.242 534.684 278.322 534.707 280.434C534.707 285.881 538.082 290.3 542.244 290.3C546.407 290.3 549.772 285.872 549.772 280.434C549.793 278.323 549.252 276.245 548.204 274.412C549.23 272.569 549.768 270.494 549.768 268.385C549.768 266.276 549.23 264.202 548.204 262.359C549.23 260.515 549.768 258.441 549.768 256.332C549.768 254.223 549.23 252.148 548.204 250.305Z" fill="#3F3D56"/>
<path opacity="0.1" d="M542.253 242.087C546.415 242.087 549.789 237.674 549.789 232.23C549.789 226.786 546.415 222.373 542.253 222.373C538.09 222.373 534.716 226.786 534.716 232.23C534.716 237.674 538.09 242.087 542.253 242.087Z" fill="#3F3D56"/>
<path opacity="0.1" d="M542.253 230.033C546.415 230.033 549.789 225.62 549.789 220.176C549.789 214.732 546.415 210.319 542.253 210.319C538.09 210.319 534.716 214.732 534.716 220.176C534.716 225.62 538.09 230.033 542.253 230.033Z" fill="#3F3D56"/>
<path opacity="0.1" d="M514.054 137.697C513.02 136.391 512.082 135.012 511.247 133.57L531.041 130.32L509.635 130.479C507.582 126.01 506.461 121.169 506.343 116.252C506.224 111.335 507.109 106.446 508.944 101.882L537.665 116.788L511.176 97.3038C513.653 93.0069 516.99 89.2667 520.977 86.3168C524.964 83.3668 529.517 81.2704 534.35 80.1584C539.184 79.0465 544.195 78.9427 549.07 79.8538C553.946 80.7648 558.581 82.671 562.687 85.4534C566.793 88.2359 570.281 91.8348 572.934 96.0255C575.587 100.216 577.348 104.909 578.106 109.81C578.865 114.712 578.605 119.717 577.343 124.514C576.08 129.31 573.843 133.795 570.77 137.688C572.373 139.729 573.753 141.935 574.888 144.269L549.205 157.615L576.597 148.422C578.521 154.109 578.997 160.185 577.981 166.101C576.965 172.018 574.49 177.588 570.779 182.306C574.971 187.627 577.581 194.02 578.31 200.754C579.039 207.489 577.857 214.292 574.9 220.387C571.943 226.481 567.331 231.62 561.59 235.215C555.849 238.81 549.212 240.717 542.439 240.717C535.665 240.717 529.028 238.81 523.288 235.215C517.547 231.62 512.934 226.481 509.977 220.387C507.021 214.292 505.839 207.489 506.568 200.754C507.297 194.02 509.907 187.627 514.099 182.306C509.095 175.947 506.375 168.089 506.375 159.997C506.375 151.905 509.095 144.048 514.099 137.688L514.054 137.697Z" fill="#6C63FF"/>
<path opacity="0.1" d="M578.493 160.006C578.505 168.1 575.784 175.961 570.77 182.315C574.962 187.636 577.572 194.029 578.301 200.763C579.03 207.498 577.848 214.301 574.891 220.395C571.934 226.49 567.322 231.628 561.581 235.224C555.84 238.819 549.204 240.726 542.43 240.726C535.656 240.726 529.019 238.819 523.279 235.224C517.538 231.628 512.925 226.49 509.968 220.395C507.012 214.301 505.83 207.498 506.559 200.763C507.288 194.029 509.898 187.636 514.09 182.315C509.237 176.178 578.493 155.959 578.493 160.006Z" fill="black"/>
</g>
<g opacity="0.1">
<path opacity="0.1" d="M919.796 298.475C925.362 298.475 929.874 292.567 929.874 285.279C929.874 277.991 925.362 272.083 919.796 272.083C914.23 272.083 909.717 277.991 909.717 285.279C909.717 292.567 914.23 298.475 919.796 298.475Z" fill="#3F3D56"/>
<path opacity="0.1" d="M911.817 228.82C910.411 226.365 909.683 223.58 909.709 220.752C909.709 213.463 914.225 207.556 919.796 207.556C925.366 207.556 929.874 213.463 929.874 220.752C929.9 223.58 929.172 226.365 927.766 228.82C929.148 231.283 929.874 234.059 929.874 236.883C929.874 239.707 929.148 242.484 927.766 244.947C929.148 247.41 929.874 250.187 929.874 253.011C929.874 255.835 929.148 258.611 927.766 261.074C929.175 263.528 929.903 266.313 929.874 269.142C929.874 276.422 925.358 282.338 919.796 282.338C914.234 282.338 909.709 276.422 909.709 269.142C909.681 266.313 910.408 263.528 911.817 261.074C910.435 258.611 909.709 255.835 909.709 253.011C909.709 250.187 910.435 247.41 911.817 244.947C910.435 242.484 909.709 239.707 909.709 236.883C909.709 234.059 910.435 231.283 911.817 228.82Z" fill="#3F3D56"/>
<path opacity="0.1" d="M919.796 217.838C925.362 217.838 929.874 211.93 929.874 204.642C929.874 197.354 925.362 191.446 919.796 191.446C914.23 191.446 909.717 197.354 909.717 204.642C909.717 211.93 914.23 217.838 919.796 217.838Z" fill="#3F3D56"/>
<path opacity="0.1" d="M919.796 201.711C925.362 201.711 929.874 195.803 929.874 188.515C929.874 181.227 925.362 175.319 919.796 175.319C914.23 175.319 909.717 181.227 909.717 188.515C909.717 195.803 914.23 201.711 919.796 201.711Z" fill="#3F3D56"/>
<path opacity="0.1" d="M957.524 78.139C958.905 76.3882 960.16 74.5415 961.279 72.6126L934.799 68.2642L963.44 68.4767C966.182 62.4951 967.675 56.0169 967.827 49.4385C967.979 42.86 966.788 36.3197 964.326 30.2176L925.898 50.1531L961.323 24.0979C958.03 18.3081 953.574 13.2622 948.237 9.27738C942.899 5.29257 936.795 2.45502 930.308 0.94311C923.821 -0.568804 917.091 -0.722392 910.542 0.491998C903.992 1.70639 897.765 4.2625 892.251 7.99965C886.737 11.7368 882.056 16.5742 878.502 22.2077C874.948 27.8413 872.597 34.1491 871.599 40.7348C870.6 47.3205 870.974 54.0415 872.698 60.4755C874.422 66.9095 877.459 72.9173 881.617 78.1212C879.469 80.8491 877.623 83.8006 876.108 86.9244L910.497 104.832L873.841 92.5304C871.264 100.14 870.627 108.271 871.986 116.189C873.346 124.107 876.659 131.56 881.625 137.875C876.023 144.997 872.537 153.551 871.568 162.561C870.598 171.571 872.183 180.671 876.142 188.822C880.1 196.974 886.273 203.846 893.954 208.655C901.634 213.463 910.513 216.013 919.575 216.013C928.636 216.013 937.515 213.463 945.196 208.655C952.876 203.846 959.049 196.974 963.008 188.822C966.967 180.671 968.552 171.571 967.582 162.561C966.612 153.551 963.127 144.997 957.524 137.875C964.22 129.364 967.86 118.849 967.86 108.02C967.86 97.1911 964.22 86.6764 957.524 78.1655V78.139Z" fill="#6C63FF"/>
<path opacity="0.1" d="M871.29 107.993C871.273 118.825 874.915 129.345 881.625 137.848C876.023 144.97 872.537 153.525 871.567 162.534C870.598 171.544 872.183 180.645 876.141 188.796C880.1 196.947 886.273 203.82 893.953 208.628C901.634 213.436 910.513 215.986 919.574 215.986C928.636 215.986 937.515 213.436 945.196 208.628C952.876 203.82 959.049 196.947 963.008 188.796C966.966 180.645 968.551 171.544 967.582 162.534C966.612 153.525 963.126 144.97 957.524 137.848C963.998 129.629 871.29 102.573 871.29 107.993Z" fill="black"/>
</g>
<g opacity="0.1">
<path opacity="0.1" d="M822.501 297.031C826.664 297.031 830.038 292.618 830.038 287.174C830.038 281.73 826.664 277.317 822.501 277.317C818.339 277.317 814.964 281.73 814.964 287.174C814.964 292.618 818.339 297.031 822.501 297.031Z" fill="#3F3D56"/>
<path opacity="0.1" d="M816.55 244.992C815.502 243.159 814.961 241.08 814.982 238.969C814.982 233.523 818.356 229.104 822.51 229.104C826.663 229.104 830.047 233.532 830.047 238.969C830.069 241.082 829.525 243.161 828.47 244.992C829.504 246.832 830.046 248.908 830.046 251.018C830.046 253.129 829.504 255.205 828.47 257.045C829.504 258.886 830.046 260.961 830.046 263.072C830.046 265.183 829.504 267.258 828.47 269.099C829.525 270.929 830.069 273.008 830.047 275.121C830.047 280.567 826.672 284.987 822.51 284.987C818.347 284.987 814.982 280.559 814.982 275.121C814.961 273.01 815.502 270.931 816.55 269.099C815.524 267.255 814.986 265.181 814.986 263.072C814.986 260.963 815.524 258.888 816.55 257.045C815.524 255.202 814.986 253.128 814.986 251.018C814.986 248.909 815.524 246.835 816.55 244.992Z" fill="#3F3D56"/>
<path opacity="0.1" d="M822.501 236.773C826.664 236.773 830.038 232.36 830.038 226.916C830.038 221.472 826.664 217.059 822.501 217.059C818.339 217.059 814.964 221.472 814.964 226.916C814.964 232.36 818.339 236.773 822.501 236.773Z" fill="#3F3D56"/>
<path opacity="0.1" d="M822.501 224.719C826.664 224.719 830.038 220.306 830.038 214.862C830.038 209.419 826.664 205.005 822.501 205.005C818.339 205.005 814.964 209.419 814.964 214.862C814.964 220.306 818.339 224.719 822.501 224.719Z" fill="#3F3D56"/>
<path opacity="0.1" d="M850.699 132.384C851.734 131.078 852.672 129.698 853.507 128.257L833.713 125.007L855.119 125.166C857.172 120.697 858.293 115.856 858.411 110.939C858.53 106.022 857.645 101.132 855.81 96.569L827.089 111.474L853.578 91.9903C851.1 87.6934 847.764 83.9532 843.777 81.0033C839.79 78.0534 835.237 75.957 830.403 74.845C825.57 73.733 820.559 73.6293 815.683 74.5403C810.808 75.4513 806.173 77.3575 802.067 80.14C797.961 82.9224 794.472 86.5213 791.819 90.712C789.166 94.9027 787.406 99.5953 786.647 104.497C785.889 109.398 786.149 114.404 787.411 119.2C788.673 123.997 790.911 128.482 793.984 132.375C792.381 134.416 791 136.622 789.866 138.955L815.549 152.302L788.209 143.118C786.285 148.804 785.81 154.88 786.826 160.797C787.842 166.713 790.317 172.283 794.028 177.002C789.836 182.322 787.226 188.715 786.497 195.45C785.768 202.184 786.95 208.988 789.907 215.082C792.864 221.176 797.476 226.315 803.217 229.91C808.958 233.506 815.595 235.413 822.368 235.413C829.142 235.413 835.779 233.506 841.519 229.91C847.26 226.315 851.873 221.176 854.83 215.082C857.786 208.988 858.968 202.184 858.239 195.45C857.51 188.715 854.901 182.322 850.708 177.002C855.712 170.642 858.432 162.785 858.432 154.693C858.432 146.601 855.712 138.744 850.708 132.384H850.699Z" fill="#6C63FF"/>
<path opacity="0.1" d="M786.261 154.693C786.249 162.787 788.97 170.647 793.984 177.002C789.792 182.322 787.182 188.715 786.453 195.45C785.724 202.184 786.906 208.988 789.862 215.082C792.819 221.176 797.432 226.315 803.173 229.91C808.913 233.506 815.55 235.412 822.324 235.412C829.098 235.412 835.734 233.506 841.475 229.91C847.216 226.315 851.828 221.176 854.785 215.082C857.742 208.988 858.924 202.184 858.195 195.45C857.466 188.715 854.856 182.322 850.664 177.002C855.517 170.864 786.261 150.645 786.261 154.693Z" fill="black"/>
</g>
<g opacity="0.1">
<path opacity="0.1" d="M54.5459 298.474C60.112 298.474 64.6243 292.566 64.6243 285.278C64.6243 277.991 60.112 272.083 54.5459 272.083C48.9797 272.083 44.4674 277.991 44.4674 285.278C44.4674 292.566 48.9797 298.474 54.5459 298.474Z" fill="#3F3D56"/>
<path opacity="0.1" d="M62.5165 228.82C63.9225 226.365 64.65 223.58 64.6243 220.752C64.6243 213.463 60.1076 207.556 54.5459 207.556C48.9841 207.556 44.4674 213.463 44.4674 220.752C44.439 223.579 45.1634 226.364 46.5664 228.82C45.1896 231.284 44.4668 234.06 44.4668 236.883C44.4668 239.706 45.1896 242.482 46.5664 244.947C45.1896 247.411 44.4668 250.188 44.4668 253.011C44.4668 255.834 45.1896 258.61 46.5664 261.074C45.1606 263.529 44.436 266.314 44.4674 269.142C44.4674 276.422 48.9753 282.338 54.5459 282.338C60.1165 282.338 64.6509 276.44 64.6509 269.16C64.6791 266.331 63.9515 263.546 62.5431 261.092C63.9247 258.629 64.6504 255.852 64.6504 253.028C64.6504 250.204 63.9247 247.428 62.5431 244.965C63.9247 242.502 64.6504 239.725 64.6504 236.901C64.6504 234.077 63.9247 231.3 62.5431 228.837L62.5165 228.82Z" fill="#3F3D56"/>
<path opacity="0.1" d="M54.5459 217.838C60.112 217.838 64.6243 211.93 64.6243 204.642C64.6243 197.354 60.112 191.446 54.5459 191.446C48.9797 191.446 44.4674 197.354 44.4674 204.642C44.4674 211.93 48.9797 217.838 54.5459 217.838Z" fill="#3F3D56"/>
<path opacity="0.1" d="M54.5459 201.711C60.112 201.711 64.6243 195.803 64.6243 188.515C64.6243 181.227 60.112 175.319 54.5459 175.319C48.9797 175.319 44.4674 181.227 44.4674 188.515C44.4674 195.803 48.9797 201.711 54.5459 201.711Z" fill="#3F3D56"/>
<path opacity="0.1" d="M16.827 78.1388C15.4487 76.3859 14.194 74.5394 13.0719 72.6125L39.561 68.2641L10.8933 68.5209C8.1512 62.5392 6.65836 56.0611 6.50608 49.4826C6.35381 42.9042 7.54528 36.3639 10.0076 30.2617L48.4439 50.1972L13.0188 24.142C16.3205 18.3695 20.7791 13.3412 26.1151 9.37233C31.451 5.40349 37.5493 2.57967 44.0276 1.07789C50.506 -0.423895 57.2247 -0.571266 63.7626 0.645017C70.3006 1.8613 76.5168 4.41501 82.0217 8.14608C87.5265 11.8771 92.2013 16.7051 95.753 22.3274C99.3047 27.9496 101.657 34.2449 102.662 40.8187C103.667 47.3924 103.303 54.1029 101.593 60.5295C99.883 66.956 96.8641 72.9601 92.7253 78.1654C94.8725 80.8933 96.7194 83.8447 98.2339 86.9685L63.8361 104.832L100.501 92.5303C103.071 100.141 103.705 108.272 102.344 116.189C100.983 124.106 97.6714 131.559 92.7076 137.874C98.3103 144.996 101.796 153.551 102.766 162.561C103.735 171.57 102.15 180.671 98.1915 188.822C94.2328 196.973 88.0602 203.846 80.3795 208.654C72.6988 213.463 63.8201 216.013 54.7584 216.013C45.6968 216.013 36.8181 213.463 29.1374 208.654C21.4567 203.846 15.2841 196.973 11.3254 188.822C7.36661 180.671 5.7815 171.57 6.75127 162.561C7.72104 153.551 11.2065 144.996 16.8093 137.874C10.1136 129.364 6.47339 118.849 6.47339 108.02C6.47339 97.1909 10.1136 86.6763 16.8093 78.1654L16.827 78.1388Z" fill="#6C63FF"/>
<path opacity="0.1" d="M103.043 107.993C103.06 118.825 99.4185 129.345 92.7077 137.848C98.3104 144.97 101.796 153.525 102.766 162.534C103.735 171.544 102.15 180.645 98.1916 188.796C94.2328 196.947 88.0602 203.82 80.3796 208.628C72.6989 213.436 63.8201 215.986 54.7585 215.986C45.6969 215.986 36.8181 213.436 29.1374 208.628C21.4568 203.82 15.2842 196.947 11.3254 188.796C7.36666 180.645 5.78156 171.544 6.75133 162.534C7.7211 153.525 11.2066 144.97 16.8093 137.848C10.3354 129.629 103.043 102.573 103.043 107.993Z" fill="black"/>
</g>
<g opacity="0.1">
<path opacity="0.1" d="M151.832 297.031C155.995 297.031 159.369 292.618 159.369 287.174C159.369 281.73 155.995 277.317 151.832 277.317C147.67 277.317 144.295 281.73 144.295 287.174C144.295 292.618 147.67 297.031 151.832 297.031Z" fill="#3F3D56"/>
<path opacity="0.1" d="M157.793 244.992C158.84 243.159 159.381 241.08 159.36 238.969C159.36 233.523 155.995 229.104 151.832 229.104C147.67 229.104 144.296 233.532 144.296 238.969C144.277 241.081 144.821 243.16 145.872 244.992C144.839 246.832 144.296 248.908 144.296 251.018C144.296 253.129 144.839 255.205 145.872 257.045C144.839 258.886 144.296 260.961 144.296 263.072C144.296 265.183 144.839 267.258 145.872 269.099C144.821 270.93 144.277 273.009 144.296 275.121C144.296 280.567 147.67 284.987 151.832 284.987C155.995 284.987 159.36 280.559 159.36 275.121C159.381 273.01 158.84 270.931 157.793 269.099C158.818 267.255 159.356 265.181 159.356 263.072C159.356 260.963 158.818 258.888 157.793 257.045C158.818 255.202 159.356 253.128 159.356 251.018C159.356 248.909 158.818 246.835 157.793 244.992Z" fill="#3F3D56"/>
<path opacity="0.1" d="M151.832 236.773C155.995 236.773 159.369 232.36 159.369 226.916C159.369 221.472 155.995 217.059 151.832 217.059C147.67 217.059 144.295 221.472 144.295 226.916C144.295 232.36 147.67 236.773 151.832 236.773Z" fill="#3F3D56"/>
<path opacity="0.1" d="M151.832 224.719C155.995 224.719 159.369 220.306 159.369 214.862C159.369 209.419 155.995 205.005 151.832 205.005C147.67 205.005 144.295 209.419 144.295 214.862C144.295 220.306 147.67 224.719 151.832 224.719Z" fill="#3F3D56"/>
<path opacity="0.1" d="M123.634 132.384C122.603 131.075 121.664 129.696 120.826 128.257L140.62 125.007L119.215 125.166C117.161 120.697 116.041 115.856 115.922 110.939C115.803 106.022 116.688 101.132 118.524 96.569L147.245 111.474L120.756 91.9903C123.233 87.6934 126.569 83.9532 130.556 81.0033C134.544 78.0534 139.096 75.957 143.93 74.845C148.763 73.733 153.774 73.6293 158.65 74.5403C163.525 75.4513 168.161 77.3575 172.267 80.14C176.373 82.9224 179.861 86.5213 182.514 90.712C185.167 94.9027 186.927 99.5953 187.686 104.497C188.444 109.398 188.184 114.404 186.922 119.2C185.66 123.997 183.422 128.482 180.349 132.375C181.958 134.411 183.339 136.618 184.468 138.955L158.784 152.302L186.177 143.109C188.101 148.795 188.576 154.872 187.561 160.788C186.545 166.704 184.069 172.274 180.358 176.993C184.551 182.313 187.16 188.707 187.889 195.441C188.618 202.175 187.436 208.979 184.48 215.073C181.523 221.167 176.91 226.306 171.169 229.902C165.429 233.497 158.792 235.404 152.018 235.404C145.245 235.404 138.608 233.497 132.867 229.902C127.126 226.306 122.514 221.167 119.557 215.073C116.6 208.979 115.418 202.175 116.147 195.441C116.876 188.707 119.486 182.313 123.678 176.993C118.675 170.633 115.954 162.776 115.954 154.684C115.954 146.592 118.675 138.735 123.678 132.375L123.634 132.384Z" fill="#6C63FF"/>
<path opacity="0.1" d="M188.072 154.693C188.084 162.787 185.363 170.647 180.349 177.002C184.542 182.322 187.151 188.715 187.88 195.45C188.609 202.184 187.427 208.988 184.471 215.082C181.514 221.176 176.901 226.315 171.16 229.91C165.42 233.506 158.783 235.412 152.009 235.412C145.236 235.412 138.599 233.506 132.858 229.91C127.117 226.315 122.505 221.176 119.548 215.082C116.591 208.988 115.409 202.184 116.138 195.45C116.867 188.715 119.477 182.322 123.669 177.002C118.798 170.864 188.072 150.645 188.072 154.693Z" fill="black"/>
</g>
<path opacity="0.1" d="M485.324 444.577C753.362 444.577 970.649 441.064 970.649 436.73C970.649 432.396 753.362 428.883 485.324 428.883C217.287 428.883 0 432.396 0 436.73C0 441.064 217.287 444.577 485.324 444.577Z" fill="#D7D7D7"/>
<path opacity="0.1" d="M485.324 509.006C753.362 509.006 970.649 505.493 970.649 501.16C970.649 496.826 753.362 493.313 485.324 493.313C217.287 493.313 0 496.826 0 501.16C0 505.493 217.287 509.006 485.324 509.006Z" fill="#D7D7D7"/>
<path opacity="0.1" d="M485.324 310.112C753.362 310.112 970.649 306.599 970.649 302.265C970.649 297.932 753.362 294.418 485.324 294.418C217.287 294.418 0 297.932 0 302.265C0 306.599 217.287 310.112 485.324 310.112Z" fill="#D7D7D7"/>
<path opacity="0.1" d="M485.324 377.34C753.362 377.34 970.649 373.827 970.649 369.493C970.649 365.16 753.362 361.646 485.324 361.646C217.287 361.646 0 365.16 0 369.493C0 373.827 217.287 377.34 485.324 377.34Z" fill="#D7D7D7"/>
<path opacity="0.1" d="M346.511 92.9554C344.295 92.5368 342.005 92.7865 339.931 93.6728C338.689 94.2275 337.345 94.5142 335.985 94.5142C334.626 94.5142 333.281 94.2275 332.04 93.6728C330.571 93.0275 328.979 92.7099 327.374 92.7421C325.77 92.7742 324.192 93.1552 322.75 93.8588C321.929 94.2868 321.018 94.5144 320.093 94.523C316.329 94.523 313.194 90.7325 312.538 85.7287C313.29 85.178 313.93 84.4898 314.425 83.7006C316.63 80.1581 320.048 77.8555 323.892 77.8555C327.736 77.8555 331.11 80.1138 333.315 83.6298C333.974 84.6941 334.896 85.5699 335.994 86.172C337.091 86.7741 338.325 87.0821 339.577 87.066H339.674C342.65 87.0483 345.245 89.4572 346.511 92.9554Z" fill="#6C63FF"/>
<path opacity="0.1" d="M357.98 77.2535L351.896 81.1148L355.589 74.3929C354.545 73.5572 353.251 73.0957 351.913 73.0822H351.807C351.386 73.0897 350.965 73.0571 350.55 72.9848L348.486 74.2955L349.372 72.6836C347.909 72.1748 346.644 71.2171 345.758 69.9471L342.065 72.2851L344.403 68.0518C343.421 66.7839 342.17 65.7503 340.739 65.0257C339.309 64.3012 337.735 63.904 336.132 63.8628C332.288 63.8628 328.869 66.1477 326.664 69.7079C326.011 70.7724 325.087 71.6451 323.988 72.2377C322.888 72.8303 321.651 73.1216 320.403 73.0822H320.199C315.957 73.0822 312.521 77.8823 312.521 83.816C312.521 89.7497 315.957 94.5498 320.199 94.5498C321.126 94.5427 322.037 94.3117 322.856 93.8768C324.298 93.1771 325.875 92.7989 327.477 92.7683C329.08 92.7378 330.67 93.0555 332.137 93.6996C333.387 94.2693 334.741 94.5709 336.114 94.5852C337.465 94.5829 338.801 94.2994 340.037 93.7528C341.496 93.1215 343.073 92.8107 344.662 92.8413C346.251 92.8718 347.815 93.2431 349.248 93.9299C350.068 94.3594 350.979 94.5842 351.905 94.5852C356.138 94.5852 359.574 89.7763 359.574 83.8514C359.61 81.5526 359.061 79.2824 357.98 77.2535Z" fill="#6C63FF"/>
<path opacity="0.1" d="M238.757 234.058C240.97 233.64 243.257 233.889 245.328 234.775C246.571 235.33 247.917 235.617 249.278 235.617C250.639 235.617 251.985 235.33 253.228 234.775C254.697 234.131 256.288 233.813 257.892 233.843C259.496 233.874 261.074 234.252 262.518 234.952C263.336 235.388 264.248 235.619 265.175 235.625C268.939 235.625 272.074 231.826 272.72 226.822C271.97 226.273 271.332 225.584 270.843 224.794C268.629 221.251 265.21 218.958 261.376 218.958C257.541 218.958 254.158 221.207 251.944 224.732C251.286 225.795 250.365 226.67 249.269 227.272C248.174 227.874 246.941 228.183 245.691 228.168H245.594C242.609 228.186 240.005 230.586 238.757 234.058Z" fill="#6C63FF"/>
<path opacity="0.1" d="M227.279 218.382L233.372 222.243L229.67 215.53C230.717 214.692 232.013 214.227 233.354 214.211H233.452C233.875 214.217 234.299 214.187 234.718 214.122L236.782 215.424L235.896 213.821C237.356 213.311 238.617 212.353 239.5 211.084L243.194 213.422L240.891 209.18C241.873 207.913 243.125 206.881 244.556 206.158C245.986 205.435 247.56 205.04 249.163 205C252.997 205 256.425 207.285 258.63 210.845C259.283 211.908 260.205 212.78 261.303 213.373C262.401 213.965 263.636 214.257 264.883 214.219H265.095C269.328 214.219 272.765 219.028 272.765 224.953C272.765 230.878 269.328 235.687 265.095 235.687C264.169 235.683 263.257 235.455 262.438 235.023C260.996 234.319 259.418 233.938 257.814 233.906C256.209 233.874 254.617 234.192 253.148 234.837C251.904 235.411 250.551 235.713 249.18 235.722C247.826 235.721 246.487 235.438 245.248 234.89C243.791 234.259 242.216 233.948 240.628 233.979C239.041 234.009 237.478 234.38 236.046 235.067C235.227 235.497 234.315 235.721 233.39 235.722C229.147 235.722 225.711 230.922 225.711 224.989C225.67 222.69 226.209 220.417 227.279 218.382Z" fill="#6C63FF"/>
<path d="M588.332 434.189C590.644 429.902 588.022 424.659 585.011 420.842C582 417.025 578.316 413.049 578.395 408.186C578.51 401.199 585.932 397.063 591.857 393.361C596.257 390.602 600.315 387.332 603.946 383.619C605.464 382.19 606.72 380.505 607.656 378.642C608.887 375.914 608.852 372.797 608.772 369.786C608.518 359.813 608.025 349.847 607.293 339.887" stroke="#3F3D56" stroke-width="4" stroke-miterlimit="10"/>
<path d="M618.567 339.39C618.482 337.564 617.938 335.788 616.986 334.226C616.035 332.665 614.705 331.368 613.121 330.455L610.676 335.281L610.756 329.436C608.539 328.783 606.173 328.852 603.997 329.632C601.822 330.412 599.951 331.863 598.654 333.775C597.357 335.688 596.701 337.963 596.781 340.273C596.862 342.582 597.674 344.806 599.1 346.624C600.527 348.442 602.494 349.76 604.718 350.387C606.942 351.014 609.308 350.919 611.474 350.114C613.64 349.309 615.495 347.836 616.77 345.909C618.045 343.981 618.674 341.699 618.567 339.39Z" fill="#6C63FF"/>
<path d="M599.119 413.181C598.022 415.313 596.253 417.023 594.087 418.048C591.92 419.073 589.475 419.356 587.132 418.852C584.788 418.347 582.676 417.085 581.122 415.259C579.569 413.434 578.66 411.147 578.537 408.753C578.455 407.243 578.697 405.733 579.245 404.325C580.048 402.27 581.455 400.507 583.28 399.268C585.106 398.029 587.264 397.372 589.47 397.385C591.676 397.397 593.826 398.078 595.637 399.338C597.448 400.597 598.835 402.376 599.615 404.44L592.804 409.984L600.297 408.213C600.305 409.939 599.901 411.642 599.119 413.181Z" fill="#6C63FF"/>
<path d="M593.734 392.015C591.059 392.141 588.431 391.278 586.351 389.59C584.271 387.902 582.886 385.507 582.459 382.863C582.032 380.219 582.593 377.51 584.036 375.253C585.478 372.996 587.701 371.349 590.28 370.627L590.218 375.117L592.689 370.228C595.578 370.093 598.403 371.111 600.541 373.059C602.679 375.006 603.957 377.723 604.092 380.612C604.227 383.501 603.209 386.326 601.261 388.464C599.314 390.603 596.597 391.88 593.708 392.015H593.734Z" fill="#6C63FF"/>
<path d="M620.206 374.4C618.516 374.487 616.828 374.18 615.277 373.502C613.726 372.824 612.354 371.794 611.27 370.494C610.186 369.194 609.42 367.66 609.032 366.012C608.644 364.365 608.644 362.65 609.034 361.003C609.424 359.355 610.191 357.822 611.276 356.523C612.361 355.224 613.734 354.195 615.286 353.519C616.837 352.842 618.525 352.536 620.215 352.625C621.905 352.714 623.552 353.195 625.024 354.03L623.102 359.344L627.025 355.465C628.612 356.92 629.733 358.812 630.246 360.903C630.759 362.993 630.641 365.189 629.908 367.213C629.175 369.237 627.859 370.999 626.126 372.277C624.393 373.554 622.321 374.289 620.17 374.391L620.206 374.4Z" fill="#6C63FF"/>
<path opacity="0.1" d="M617.097 342.295C614.582 342.57 612.138 343.349 609.605 343.509C607.072 343.668 604.291 343.057 602.714 341.1C601.973 339.959 601.299 338.776 600.695 337.557C600.007 336.483 599.064 335.594 597.95 334.971C597.244 336.353 596.842 337.869 596.77 339.419C596.697 340.968 596.956 342.516 597.53 343.957C598.103 345.399 598.977 346.701 600.094 347.778C601.211 348.854 602.545 349.68 604.007 350.2C605.468 350.72 607.024 350.922 608.57 350.792C610.116 350.663 611.616 350.205 612.971 349.449C614.326 348.693 615.504 347.657 616.426 346.41C617.348 345.162 617.994 343.732 618.319 342.216C617.921 342.225 617.504 342.251 617.097 342.295Z" fill="black"/>
<path opacity="0.1" d="M620.206 374.399C618.326 374.488 616.455 374.089 614.775 373.241C613.096 372.392 611.664 371.124 610.62 369.558C609.576 367.992 608.955 366.183 608.817 364.306C608.68 362.429 609.03 360.549 609.835 358.848C610.699 359.431 611.442 360.177 612.023 361.044C612.674 362.286 613.395 363.489 614.183 364.648C615.884 366.641 618.789 367.305 621.419 367.172C624.049 367.04 626.591 366.287 629.213 366.065C629.576 366.065 629.939 366.012 630.311 366.003C629.768 368.311 628.488 370.379 626.665 371.894C624.841 373.409 622.574 374.289 620.206 374.399Z" fill="black"/>
<path opacity="0.1" d="M593.734 392.015C591.874 392.102 590.022 391.711 588.356 390.88C586.689 390.048 585.264 388.803 584.215 387.264C583.166 385.725 582.529 383.943 582.365 382.088C582.2 380.233 582.514 378.367 583.275 376.667C584.174 377.258 584.957 378.009 585.587 378.881C586.301 380.152 587.09 381.38 587.951 382.556C589.784 384.602 592.884 385.328 595.665 385.213C598.446 385.098 600.979 384.496 603.636 384.328C602.974 386.471 601.669 388.358 599.898 389.734C598.126 391.109 595.974 391.905 593.734 392.015Z" fill="black"/>
<path opacity="0.1" d="M599.119 413.181C598.022 415.313 596.254 417.023 594.087 418.048C591.92 419.074 589.475 419.356 587.132 418.852C584.788 418.347 582.676 417.085 581.122 415.259C579.569 413.434 578.66 411.147 578.537 408.753C578.455 407.243 578.697 405.734 579.245 404.325C580.143 404.914 580.949 405.634 581.637 406.459C582.673 407.717 583.355 409.116 584.559 410.329C586.782 412.517 590.387 413.42 593.584 413.5C595.434 413.505 597.282 413.399 599.119 413.181Z" fill="black"/>
<path d="M164.938 370.423C167.25 366.136 164.628 360.894 161.617 357.076C158.606 353.259 154.922 349.265 155.001 344.421C155.116 337.433 162.538 333.297 168.463 329.595C172.863 326.836 176.921 323.566 180.552 319.853C182.07 318.424 183.326 316.74 184.262 314.876C185.493 312.148 185.458 309.031 185.378 306.02C185.119 296.048 184.626 286.081 183.899 276.121" stroke="#3F3D56" stroke-width="4" stroke-miterlimit="10"/>
<path d="M195.173 275.625C195.088 273.799 194.544 272.023 193.592 270.461C192.641 268.9 191.311 267.603 189.727 266.689L187.282 271.516L187.362 265.671C185.145 265.018 182.779 265.087 180.603 265.867C178.428 266.647 176.557 268.098 175.26 270.01C173.963 271.923 173.307 274.198 173.387 276.508C173.468 278.817 174.28 281.041 175.706 282.859C177.133 284.677 179.1 285.995 181.324 286.622C183.548 287.249 185.914 287.153 188.08 286.349C190.247 285.544 192.101 284.071 193.376 282.144C194.651 280.216 195.28 277.934 195.173 275.625Z" fill="#6C63FF"/>
<path d="M175.725 349.416C174.628 351.548 172.859 353.259 170.693 354.284C168.526 355.309 166.081 355.591 163.738 355.087C161.394 354.583 159.282 353.32 157.728 351.494C156.175 349.669 155.266 347.382 155.143 344.988C155.061 343.478 155.303 341.969 155.851 340.56C156.654 338.505 158.061 336.742 159.886 335.503C161.712 334.264 163.87 333.608 166.076 333.62C168.282 333.633 170.432 334.314 172.243 335.573C174.054 336.833 175.441 338.611 176.221 340.675L169.41 346.219L176.903 344.448C176.911 346.174 176.508 347.878 175.725 349.416Z" fill="#6C63FF"/>
<path d="M170.34 328.25C167.665 328.376 165.037 327.512 162.957 325.824C160.877 324.136 159.492 321.742 159.065 319.098C158.638 316.453 159.199 313.744 160.642 311.488C162.084 309.231 164.307 307.584 166.886 306.862L166.824 311.352L169.295 306.463C170.726 306.396 172.156 306.612 173.503 307.097C174.85 307.583 176.088 308.329 177.147 309.294C178.206 310.258 179.065 311.421 179.674 312.717C180.283 314.013 180.631 315.417 180.698 316.847C180.765 318.278 180.549 319.707 180.064 321.054C179.578 322.402 178.832 323.64 177.867 324.699C176.903 325.758 175.74 326.616 174.444 327.225C173.148 327.835 171.744 328.183 170.314 328.25H170.34Z" fill="#6C63FF"/>
<path d="M196.812 310.634C195.122 310.722 193.434 310.414 191.883 309.737C190.332 309.059 188.96 308.029 187.876 306.729C186.792 305.429 186.026 303.895 185.638 302.247C185.25 300.6 185.25 298.885 185.64 297.237C186.029 295.59 186.797 294.057 187.882 292.758C188.967 291.459 190.34 290.43 191.892 289.754C193.443 289.077 195.131 288.771 196.821 288.86C198.511 288.948 200.158 289.43 201.63 290.265L199.708 295.579L203.631 291.7C205.218 293.154 206.339 295.047 206.852 297.137C207.365 299.228 207.247 301.424 206.514 303.448C205.781 305.472 204.465 307.234 202.732 308.511C200.999 309.789 198.927 310.524 196.776 310.626L196.812 310.634Z" fill="#6C63FF"/>
<path opacity="0.1" d="M193.703 278.53C191.188 278.805 188.744 279.584 186.211 279.744C183.678 279.903 180.897 279.292 179.321 277.335C178.579 276.194 177.905 275.011 177.301 273.792C176.613 272.717 175.67 271.829 174.556 271.206C173.851 272.588 173.448 274.104 173.376 275.654C173.303 277.203 173.563 278.75 174.136 280.192C174.709 281.633 175.584 282.936 176.7 284.013C177.817 285.089 179.151 285.915 180.613 286.435C182.075 286.954 183.63 287.156 185.176 287.027C186.722 286.897 188.223 286.439 189.577 285.684C190.932 284.928 192.11 283.892 193.032 282.644C193.955 281.397 194.6 279.967 194.925 278.451C194.527 278.459 194.111 278.486 193.703 278.53Z" fill="black"/>
<path opacity="0.1" d="M196.812 310.634C194.932 310.723 193.061 310.324 191.381 309.476C189.702 308.627 188.27 307.359 187.226 305.793C186.182 304.227 185.561 302.418 185.423 300.541C185.286 298.664 185.636 296.784 186.441 295.083C187.305 295.666 188.048 296.412 188.629 297.279C189.28 298.52 190.001 299.724 190.789 300.883C192.49 302.876 195.395 303.54 198.025 303.407C200.655 303.275 203.197 302.522 205.819 302.3C206.182 302.3 206.545 302.247 206.917 302.238C206.374 304.546 205.094 306.614 203.271 308.129C201.447 309.644 199.18 310.524 196.812 310.634Z" fill="black"/>
<path opacity="0.1" d="M170.341 328.249C168.48 328.336 166.628 327.946 164.962 327.114C163.296 326.282 161.87 325.038 160.821 323.499C159.772 321.96 159.135 320.178 158.971 318.322C158.806 316.467 159.12 314.601 159.881 312.901C160.78 313.493 161.563 314.243 162.193 315.115C162.907 316.387 163.696 317.614 164.557 318.791C166.391 320.837 169.49 321.563 172.271 321.448C175.052 321.333 177.585 320.73 180.242 320.562C179.581 322.705 178.276 324.593 176.504 325.968C174.733 327.343 172.581 328.14 170.341 328.249Z" fill="black"/>
<path opacity="0.1" d="M175.725 349.416C174.628 351.547 172.859 353.258 170.693 354.283C168.526 355.308 166.081 355.591 163.738 355.086C161.394 354.582 159.282 353.32 157.728 351.494C156.175 349.669 155.266 347.382 155.143 344.988C155.061 343.478 155.303 341.968 155.851 340.56C156.749 341.149 157.555 341.868 158.243 342.694C159.279 343.952 159.961 345.351 161.165 346.564C163.388 348.752 166.993 349.655 170.19 349.735C172.04 349.74 173.888 349.634 175.725 349.416Z" fill="black"/>
<path d="M333.012 261.398C333.095 259.572 333.637 257.796 334.588 256.235C335.538 254.673 336.866 253.376 338.449 252.462L340.894 257.289L340.823 251.444C341.987 251.106 343.198 250.959 344.41 251.01C346.563 251.11 348.639 251.847 350.374 253.127C352.109 254.407 353.425 256.172 354.157 258.2C354.889 260.228 355.003 262.428 354.485 264.52C353.966 266.613 352.839 268.505 351.246 269.958C349.652 271.41 347.664 272.357 345.532 272.68C343.401 273.002 341.221 272.685 339.27 271.769C337.318 270.853 335.682 269.379 334.568 267.533C333.454 265.687 332.912 263.552 333.012 261.398Z" fill="#6C63FF"/>
<path opacity="0.1" d="M334.481 264.303C336.997 264.578 339.441 265.357 341.965 265.516C344.489 265.676 347.279 265.065 348.864 263.108C349.603 261.967 350.274 260.784 350.874 259.565C351.566 258.49 352.512 257.602 353.629 256.979C354.335 258.361 354.739 259.878 354.812 261.429C354.885 262.979 354.626 264.527 354.053 265.97C353.479 267.412 352.604 268.716 351.487 269.793C350.369 270.87 349.034 271.696 347.571 272.215C346.108 272.735 344.552 272.936 343.005 272.806C341.458 272.675 339.957 272.216 338.602 271.458C337.247 270.701 336.07 269.663 335.148 268.414C334.227 267.164 333.583 265.733 333.259 264.215C333.658 264.223 334.065 264.259 334.481 264.303Z" fill="black"/>
<path d="M487.167 433.931C536.059 433.931 575.694 394.296 575.694 345.404C575.694 296.512 536.059 256.876 487.167 256.876C438.274 256.876 398.639 296.512 398.639 345.404C398.639 394.296 438.274 433.931 487.167 433.931Z" fill="#3F3D56"/>
<path d="M537.515 318.658L511.008 345.626C510.961 345.67 510.924 345.724 510.899 345.783C510.873 345.843 510.86 345.906 510.86 345.971C510.86 346.035 510.873 346.099 510.899 346.159C510.924 346.218 510.961 346.272 511.008 346.316L529.606 366.092C530.051 366.541 530.353 367.11 530.476 367.73C530.598 368.35 530.535 368.992 530.293 369.575C530.052 370.159 529.644 370.659 529.12 371.011C528.596 371.364 527.979 371.553 527.348 371.557C526.498 371.555 525.683 371.218 525.08 370.618L506.58 350.913C506.485 350.82 506.358 350.768 506.225 350.768C506.093 350.768 505.966 350.82 505.871 350.913L501.363 355.465C499.518 357.352 497.313 358.852 494.88 359.875C492.447 360.899 489.833 361.426 487.193 361.425C484.503 361.413 481.843 360.864 479.367 359.812C476.892 358.76 474.651 357.225 472.775 355.297L468.444 350.868C468.35 350.775 468.223 350.723 468.09 350.723C467.958 350.723 467.83 350.775 467.736 350.868L449.279 370.529C448.983 370.827 448.63 371.063 448.242 371.224C447.853 371.385 447.437 371.468 447.017 371.468C446.596 371.468 446.18 371.385 445.792 371.224C445.404 371.063 445.051 370.827 444.754 370.529C444.455 370.233 444.218 369.881 444.057 369.492C443.895 369.104 443.812 368.687 443.812 368.267C443.812 367.846 443.895 367.429 444.057 367.041C444.218 366.653 444.455 366.3 444.754 366.004L463.281 346.272C463.364 346.176 463.409 346.053 463.409 345.927C463.409 345.8 463.364 345.678 463.281 345.581L436.774 318.614C436.706 318.545 436.619 318.499 436.525 318.48C436.43 318.461 436.332 318.47 436.242 318.507C436.153 318.544 436.077 318.607 436.023 318.688C435.97 318.768 435.942 318.863 435.942 318.959V372.921C435.949 375.007 436.781 377.005 438.256 378.48C439.731 379.955 441.729 380.787 443.815 380.794H530.492C532.578 380.787 534.576 379.955 536.051 378.48C537.526 377.005 538.358 375.007 538.365 372.921V319.004C538.369 318.903 538.342 318.804 538.288 318.719C538.234 318.635 538.155 318.569 538.062 318.531C537.968 318.493 537.866 318.485 537.768 318.508C537.67 318.531 537.582 318.583 537.515 318.658Z" fill="#6C63FF"/>
<path d="M487.167 355.022C488.964 355.04 490.746 354.696 492.407 354.011C494.068 353.327 495.575 352.315 496.838 351.037L535.442 311.741C534.072 310.606 532.351 309.98 530.571 309.97H443.833C442.053 309.976 440.33 310.602 438.962 311.741L477.575 351.037C478.827 352.308 480.32 353.316 481.968 354C483.615 354.685 485.383 355.032 487.167 355.022Z" fill="#6C63FF"/>
<path opacity="0.1" d="M486.051 256.885C468.531 256.877 451.402 262.064 436.831 271.792C422.26 281.52 410.902 295.352 404.194 311.536C397.485 327.721 395.727 345.531 399.143 362.715C402.559 379.899 410.995 395.683 423.383 408.072C435.771 420.46 451.556 428.896 468.74 432.311C485.923 435.727 503.734 433.97 519.918 427.261C536.103 420.553 549.934 409.194 559.662 394.623C569.39 380.053 574.578 362.924 574.569 345.404C574.558 321.931 565.228 299.423 548.63 282.825C532.032 266.227 509.524 256.897 486.051 256.885ZM486.051 422.161C470.87 422.161 456.029 417.66 443.407 409.225C430.784 400.791 420.946 388.803 415.136 374.778C409.327 360.752 407.807 345.319 410.768 330.429C413.73 315.54 421.04 301.863 431.775 291.128C442.51 280.393 456.187 273.083 471.076 270.121C485.966 267.16 501.399 268.68 515.425 274.489C529.45 280.299 541.438 290.137 549.872 302.76C558.306 315.382 562.808 330.223 562.808 345.404C562.808 365.761 554.721 385.285 540.326 399.68C525.932 414.074 506.408 422.161 486.051 422.161Z" fill="black"/>
<path d="M698.699 390.784C697.896 388.823 697.072 386.869 696.228 384.921C695.532 383.02 694.51 381.254 693.208 379.704C692.713 379.147 692.111 378.695 691.437 378.376C690.695 378.102 689.915 377.947 689.125 377.915C687.921 377.764 686.705 377.731 685.494 377.818C685.025 377.676 684.493 377.49 683.971 377.278C686.591 376.589 688.921 375.077 690.618 372.965C692.314 370.852 693.288 368.251 693.394 365.543C693.394 365.366 693.394 365.18 693.394 365.003C693.401 363.346 693.081 361.703 692.454 360.169C691.826 358.636 690.902 357.24 689.735 356.064C688.568 354.887 687.181 353.951 685.652 353.311C684.124 352.67 682.484 352.337 680.827 352.33C678.494 352.325 676.207 352.979 674.229 354.216C671.617 353.623 668.881 353.934 666.468 355.097C664.056 356.26 662.108 358.207 660.945 360.619C659.478 362.022 658.318 363.715 657.541 365.591C656.763 367.466 656.384 369.483 656.428 371.512C656.428 371.698 656.428 371.893 656.428 372.07C656.658 378.952 661.104 384.469 666.719 385.027C666.119 385.297 665.568 385.665 665.089 386.116C663.371 387.772 663.088 390.403 662.902 392.794L662.769 394.565L659.793 395.628C659.699 395.662 659.615 395.721 659.552 395.799C659.488 395.877 659.447 395.971 659.434 396.07C659.42 396.17 659.434 396.271 659.474 396.364C659.514 396.456 659.578 396.535 659.66 396.593L662.503 398.621C662.503 398.79 662.503 398.958 662.503 399.126C662.503 399.294 662.503 399.507 662.556 399.702C662.071 400.13 661.694 400.667 661.458 401.269C661.181 402.199 661.094 403.175 661.201 404.139L661.308 406.61C661.294 408.47 661.547 410.322 662.061 412.11C662.432 413.208 664.044 415.856 665.204 415.873C664.133 420.744 663.849 431.018 663.849 431.018C663.717 431.151 664.089 431.275 664.735 431.381C665.373 436.269 667.454 449.979 671.147 456.01C671.728 457.977 672.193 459.976 672.537 461.997C672.537 461.997 673.591 475.025 674.982 478.895C676.169 482.189 677.107 490.319 677.364 492.675C677.123 492.737 676.904 492.864 676.731 493.042C676.558 493.22 676.437 493.443 676.381 493.685C675.681 495.793 671.147 498.999 671.147 498.999C669.757 499.693 668.445 500.533 667.233 501.505C665.807 502.789 665.86 503.949 672.192 503.223C684.414 501.815 686.504 497.909 686.504 497.909C686.504 497.909 686.309 497.254 686.017 496.404C685.643 495.081 685.105 493.81 684.414 492.622C684.237 492.454 684.059 492.737 683.847 493.18C682.925 487.529 682.645 481.792 683.014 476.079C683.014 476.079 683.36 470.092 681.615 465.867C681.227 463.655 681.227 461.393 681.615 459.181C682.315 456.364 678.825 442.628 678.825 442.628L676.824 432.514C677.097 432.86 677.287 433.263 677.382 433.692L677.435 433.896L677.488 434.188C677.508 434.291 677.557 434.387 677.63 434.463C678.994 440.131 682.731 455.833 682.731 458.136C682.731 460.952 686.22 467.993 686.22 467.993C686.22 467.993 687.611 479.612 690.055 484.182C691.915 487.663 691.959 492.764 691.871 495.013C691.871 495.013 691.454 497.909 690.755 498.609C690.199 499.3 689.753 500.074 689.435 500.903L689.356 501.071C689.356 501.071 688.31 503.188 689.01 503.542C691.671 504.586 694.551 504.948 697.388 504.596C697.388 504.596 698.787 502.825 698.787 502.134C698.758 501.712 698.705 501.292 698.628 500.876C698.371 499.211 697.893 496.59 697.884 496.563C698.176 495.43 696.999 492.277 696.999 492.277L696.644 482.42C697.293 475.746 696.458 469.011 694.2 462.697C694.2 462.697 692.429 456.364 692.81 454.602C693.19 452.84 692.11 434.179 692.11 434.179L692.004 433.914C691.909 432.594 691.945 431.268 692.11 429.955C692.455 425.731 691.065 416.927 690.711 416.582C690.422 415.636 690.255 414.657 690.215 413.668C690.294 412.933 690.533 410.781 690.861 408.107C694.304 407.989 697.739 407.693 701.152 407.221C701.482 407.221 701.799 407.094 702.038 406.867C702.178 406.654 702.249 406.404 702.241 406.149C702.649 400.844 700.709 395.69 698.699 390.784ZM691.676 401.951C692.039 399.427 692.429 396.983 692.818 395.167L692.871 395.327C693.542 397.152 694.104 399.015 694.554 400.906C693.624 401.332 692.662 401.681 691.676 401.951Z" fill="url(#paint0_linear)"/>
<path d="M664.549 430.46C664.549 430.46 666.639 449.262 671.165 456.568C671.746 458.511 672.21 460.486 672.555 462.484C672.555 462.484 673.6 475.361 674.991 479.187C676.381 483.013 677.426 493.463 677.426 493.463C677.426 493.463 682.297 499.025 684.042 494.508C682.946 488.541 682.595 482.46 682.997 476.406C682.997 476.406 683.342 470.49 681.606 466.31C681.218 464.125 681.218 461.888 681.606 459.703C682.297 456.914 678.817 443.346 678.817 443.346L676.036 429.769L664.549 430.46Z" fill="#BE6F72"/>
<path d="M686.477 497.989C686.477 497.989 684.387 501.815 672.21 503.205C665.887 503.923 665.842 502.78 667.268 501.505C668.477 500.544 669.783 499.713 671.165 499.025C671.165 499.025 675.69 495.899 676.381 493.809C677.072 491.719 679.516 493.464 679.516 493.464C682.997 498.68 683.697 492.064 684.387 492.764C685.081 493.932 685.62 495.185 685.99 496.492C686.283 497.334 686.477 497.989 686.477 497.989Z" fill="#FF6F61"/>
<path opacity="0.1" d="M686.477 497.989C686.477 497.989 684.387 501.815 672.21 503.205C665.887 503.923 665.842 502.78 667.268 501.505C668.26 502.134 670.262 502.39 674.291 500.77C680.092 498.396 684.299 497.024 685.99 496.492C686.283 497.334 686.477 497.989 686.477 497.989Z" fill="black"/>
<path opacity="0.1" d="M682.997 476.406C682.997 476.406 683.342 470.49 681.606 466.31C681.218 464.125 681.218 461.888 681.606 459.703C682.297 456.914 678.817 443.346 678.817 443.346L676.036 429.769L673.627 429.911L676.381 443.346C676.381 443.346 679.862 456.914 679.171 459.703C678.783 461.888 678.783 464.125 679.171 466.31C680.942 470.49 680.561 476.406 680.561 476.406C680.16 482.46 680.511 488.541 681.606 494.509C681.418 495.075 681.067 495.574 680.597 495.943C681.89 496.528 683.254 496.501 684.042 494.509C682.946 488.541 682.595 482.46 682.997 476.406Z" fill="black"/>
<path d="M680.73 354.065C678.407 354.061 676.13 354.708 674.158 355.934C671.554 355.333 668.823 355.632 666.411 356.781C663.998 357.931 662.047 359.865 660.874 362.266C659.413 363.648 658.258 365.32 657.481 367.174C656.705 369.029 656.325 371.026 656.366 373.036C656.366 380.44 661.352 386.435 667.498 386.435C671.926 386.435 675.806 383.282 677.586 378.721C678.609 378.992 679.662 379.129 680.721 379.129C684.044 379.129 687.232 377.808 689.582 375.458C691.932 373.108 693.252 369.921 693.252 366.597C693.252 363.274 691.932 360.086 689.582 357.736C687.232 355.386 684.044 354.065 680.721 354.065H680.73Z" fill="#3F3D56"/>
<path d="M691.003 432.205L692.048 434.985C692.048 434.985 693.093 453.433 692.739 455.178C692.384 456.922 694.138 463.148 694.138 463.148C696.388 469.381 697.22 476.037 696.573 482.632L696.919 492.374C696.919 492.374 698.309 496.2 697.618 496.9C696.928 497.599 691.676 496.28 691.676 496.28C691.676 496.28 692.375 488.973 689.905 484.448C687.434 479.922 686.079 468.436 686.079 468.436C686.079 468.436 682.598 461.475 682.598 458.694C682.598 455.913 677.028 433.285 677.028 433.285L691.003 432.205Z" fill="#BE6F72"/>
<path d="M663.85 431.859C663.85 431.859 664.204 419.327 665.621 415.502C666.342 413.714 666.862 411.851 667.171 409.949C667.171 409.949 688.24 413.757 689.984 412.366C689.984 412.366 690.33 417.237 690.684 417.583C691.038 417.928 692.455 426.634 692.074 430.814C691.694 434.994 692.074 434.985 692.074 434.985C692.074 434.985 677.798 437.075 677.453 434.985C677.107 432.895 676.062 432.904 676.062 432.904C676.062 432.904 663.159 432.515 663.85 431.859Z" fill="#3F3D56"/>
<g opacity="0.1">
<path opacity="0.1" d="M675.336 431.859C675.336 431.859 666.533 431.62 663.876 431.142C663.876 431.593 663.876 431.859 663.876 431.859C663.185 432.55 676.063 432.904 676.063 432.904C676.238 432.92 676.404 432.988 676.541 433.099C676.071 431.859 675.336 431.859 675.336 431.859Z" fill="black"/>
<path opacity="0.1" d="M690.658 417.583C690.303 417.237 689.958 412.366 689.958 412.366C689.778 412.478 689.575 412.551 689.365 412.579C689.489 414.049 689.728 416.307 689.958 416.538C690.188 416.768 691.729 425.589 691.348 429.769C690.968 433.949 691.348 433.94 691.348 433.94C691.348 433.94 680.057 435.596 677.32 434.489C677.32 434.64 677.4 434.808 677.426 434.985C677.772 437.075 692.048 434.985 692.048 434.985C692.048 434.985 691.694 434.985 692.048 430.814C692.402 426.643 691.003 417.937 690.658 417.583Z" fill="black"/>
</g>
<path d="M679.189 375.994C679.489 376.664 679.944 377.253 680.517 377.712C680.886 377.986 681.314 378.171 681.766 378.252C680.987 378.704 680.136 379.04 679.357 379.492C678.131 380.316 676.949 381.203 675.815 382.149C674.655 383.081 673.235 383.632 671.749 383.725C672.271 383.023 672.597 382.195 672.697 381.326C672.797 380.457 672.665 379.577 672.316 378.775C671.997 378.249 671.787 377.665 671.696 377.056C671.696 376.056 672.582 375.285 673.406 374.754C674.07 374.302 674.752 373.868 675.442 373.434C675.983 373.098 676.798 372.389 677.479 372.416C678.161 372.442 678.241 373.045 678.365 373.664C678.54 374.472 678.817 375.255 679.189 375.994Z" fill="#BE6F72"/>
<path opacity="0.1" d="M679.189 375.994C679.489 376.664 679.944 377.253 680.517 377.712C680.886 377.986 681.314 378.171 681.766 378.252C680.987 378.704 680.136 379.04 679.357 379.492C678.131 380.316 676.949 381.203 675.815 382.149C674.655 383.081 673.235 383.632 671.749 383.725C672.271 383.023 672.597 382.195 672.697 381.326C672.797 380.457 672.665 379.577 672.316 378.775C671.997 378.249 671.787 377.665 671.696 377.056C671.696 376.056 672.582 375.285 673.406 374.754C674.07 374.302 674.752 373.868 675.442 373.434C675.983 373.098 676.798 372.389 677.479 372.416C678.161 372.442 678.241 373.045 678.365 373.664C678.54 374.472 678.817 375.255 679.189 375.994Z" fill="black"/>
<path d="M687.345 396.531C691.767 396.531 695.351 392.947 695.351 388.525C695.351 384.103 691.767 380.519 687.345 380.519C682.924 380.519 679.339 384.103 679.339 388.525C679.339 392.947 682.924 396.531 687.345 396.531Z" fill="#BE6F72"/>
<path d="M698.655 502.16C698.655 502.86 697.264 504.596 697.264 504.596C694.437 504.943 691.567 504.584 688.913 503.551C688.213 503.205 689.258 501.115 689.258 501.115L689.338 500.947C689.657 500.127 690.102 499.362 690.657 498.68C691.348 497.989 691.765 495.137 691.765 495.137C693.925 491.595 697.76 496.669 697.76 496.669C697.76 496.669 698.247 499.326 698.504 500.938C698.593 501.514 698.655 501.983 698.655 502.16Z" fill="#FF6F61"/>
<path opacity="0.1" d="M698.655 502.16C698.655 502.86 697.264 504.596 697.264 504.596C694.437 504.943 691.567 504.584 688.913 503.551C688.213 503.205 689.258 501.115 689.258 501.115L689.338 500.947C691.709 502.049 694.305 502.582 696.919 502.506L698.504 500.92C698.593 501.514 698.655 501.983 698.655 502.16Z" fill="black"/>
<path d="M671.333 379.642C675.657 379.642 679.162 376.137 679.162 371.813C679.162 367.49 675.657 363.984 671.333 363.984C667.009 363.984 663.504 367.49 663.504 371.813C663.504 376.137 667.009 379.642 671.333 379.642Z" fill="#BE6F72"/>
<path d="M665.019 387.471C663.3 389.11 663.017 391.705 662.84 394.069L662.574 397.532C662.478 398.465 662.457 399.403 662.512 400.339C662.512 400.915 662.654 401.5 662.707 402.111C662.76 402.722 662.778 403.492 662.787 404.192V409.311C662.703 410.367 662.898 411.427 663.354 412.384C663.597 412.847 664.004 413.202 664.496 413.379C664.988 413.556 665.528 413.542 666.01 413.34C666.561 412.916 666.948 412.316 667.109 411.64C667.972 409.563 668.568 407.385 668.88 405.157C668.951 404.387 668.96 403.616 669.03 402.846C669.101 402.075 669.234 401.269 669.349 400.49C669.845 397.231 670.067 393.936 670.288 390.651C670.35 389.676 671.227 385.842 669.951 385.417C669.331 385.213 668.047 385.851 667.454 386.063C666.556 386.364 665.727 386.843 665.019 387.471Z" fill="#BE6F72"/>
<path opacity="0.1" d="M665.019 387.471C663.3 389.11 663.017 391.705 662.84 394.069L662.574 397.532C662.478 398.465 662.457 399.403 662.512 400.339C662.512 400.915 662.654 401.5 662.707 402.111C662.76 402.722 662.778 403.492 662.787 404.192V409.311C662.703 410.367 662.898 411.427 663.354 412.384C663.597 412.847 664.004 413.202 664.496 413.379C664.988 413.556 665.528 413.542 666.01 413.34C666.561 412.916 666.948 412.316 667.109 411.64C667.972 409.563 668.568 407.385 668.88 405.157C668.951 404.387 668.96 403.616 669.03 402.846C669.101 402.075 669.234 401.269 669.349 400.49C669.845 397.231 670.067 393.936 670.288 390.651C670.35 389.676 671.227 385.842 669.951 385.417C669.331 385.213 668.047 385.851 667.454 386.063C666.556 386.364 665.727 386.843 665.019 387.471Z" fill="black"/>
<path d="M681.252 376.862C681.252 376.862 675.336 381.387 671.856 382.432C671.856 382.432 669.792 384.788 669.438 385.355C669.084 385.922 668.375 392.174 667.667 393.574C666.958 394.973 665.231 398.099 667.667 401.225C667.667 401.225 668.357 404.361 668.012 405.406C667.667 406.451 666.4 410.277 667.551 410.454C668.703 410.631 672.192 413.057 675.318 412.367C678.445 411.676 690.117 415.023 690.117 415.023C690.117 415.023 692.048 397.09 693.447 393.919L690.312 392.874C690.312 392.874 681.615 387.658 686.832 379.652C686.823 379.652 681.934 378.606 681.252 376.862Z" fill="#FF6F61"/>
<path d="M659.652 397.825L666.843 402.917C666.934 402.984 667.044 403.02 667.157 403.02C667.271 403.02 667.381 402.984 667.472 402.917L669.42 401.456C669.48 401.404 669.528 401.34 669.561 401.268C669.594 401.197 669.611 401.118 669.611 401.039C669.611 400.96 669.594 400.882 669.561 400.81C669.528 400.739 669.48 400.675 669.42 400.623L663.885 395.708C663.813 395.643 663.725 395.598 663.63 395.579C663.534 395.561 663.436 395.568 663.345 395.602L659.793 396.877C659.7 396.909 659.617 396.966 659.554 397.042C659.491 397.118 659.45 397.21 659.435 397.308C659.421 397.405 659.433 397.505 659.471 397.596C659.509 397.687 659.572 397.766 659.652 397.825Z" fill="#3F3D56"/>
<path d="M662.069 413.164C661.561 411.399 661.308 409.571 661.317 407.735L661.21 405.282C661.103 404.329 661.191 403.365 661.467 402.448C661.74 401.818 662.149 401.257 662.666 400.806C663.182 400.354 663.792 400.022 664.452 399.835C665.774 399.468 667.156 399.369 668.517 399.543C668.7 399.543 668.88 399.592 669.039 399.684C669.178 399.813 669.277 399.979 669.323 400.163C669.524 400.555 669.642 400.985 669.669 401.426C669.697 401.866 669.633 402.308 669.482 402.722C669.276 403.06 668.998 403.347 668.667 403.564C667.702 404.254 666.577 404.715 665.665 405.468C665.48 405.593 665.337 405.772 665.258 405.981C665.214 406.165 665.214 406.356 665.258 406.539C665.371 407.027 665.525 407.504 665.718 407.965C665.796 408.197 665.934 408.405 666.117 408.567C666.285 408.709 666.506 408.762 666.683 408.895C667.064 409.205 667.861 409.612 667.817 410.099C667.684 411.871 666.621 413.854 666.205 415.608C665.408 419.035 662.583 414.66 662.069 413.164Z" fill="#BE6F72"/>
<g opacity="0.1">
<path opacity="0.1" d="M673.255 412.366H673.06C673.812 412.513 674.585 412.513 675.336 412.366H675.558C674.794 412.255 674.018 412.255 673.255 412.366Z" fill="black"/>
<path opacity="0.1" d="M691.525 393.396C690.277 396.203 688.435 411.41 688.107 414.43C689.329 414.749 690.135 414.979 690.135 414.979C690.135 414.979 692.048 397.089 693.447 393.918L691.525 393.396Z" fill="black"/>
</g>
<path d="M687.62 388.773C687.685 389.123 687.82 389.456 688.016 389.753C688.212 390.049 688.466 390.304 688.762 390.5C689.501 391.12 690.18 391.808 690.79 392.555C691.666 393.786 692.344 395.145 692.801 396.585C693.465 398.387 694.024 400.226 694.475 402.093C690.046 404.148 685.016 404.051 680.304 405.406C678.276 405.94 676.436 407.029 674.991 408.55C674.27 409.314 673.722 410.224 673.385 411.219C673.047 412.214 672.927 413.27 673.033 414.315C673.04 414.437 673.077 414.556 673.14 414.66C673.217 414.747 673.313 414.815 673.42 414.858C673.528 414.901 673.644 414.918 673.76 414.908C674.937 414.907 676.08 414.514 677.01 413.792C677.929 413.074 678.764 412.254 679.499 411.348C679.955 410.754 680.568 410.3 681.27 410.037C683.829 409.258 686.584 409.302 689.24 409.258C693.214 409.18 697.18 408.867 701.117 408.319C701.26 408.336 701.406 408.321 701.543 408.273C701.68 408.226 701.804 408.148 701.906 408.046C702.008 407.944 702.086 407.819 702.134 407.683C702.181 407.546 702.197 407.4 702.18 407.257C702.569 402.031 700.63 396.93 698.637 392.086C697.84 390.143 697.019 388.21 696.175 386.285C695.48 384.404 694.461 382.66 693.164 381.131C692.671 380.575 692.068 380.128 691.393 379.82C690.631 379.545 689.829 379.395 689.019 379.377C687.73 379.203 686.426 379.179 685.131 379.306C684.925 379.958 684.8 380.634 684.759 381.317C684.83 383.708 685.875 385.948 686.902 388.109C687.035 388.437 687.416 388.455 687.62 388.773Z" fill="#BE6F72"/>
<path opacity="0.1" d="M673.441 393.254C672.842 394.28 672.535 395.45 672.555 396.637C672.557 397.107 672.632 397.573 672.777 398.019C673.018 398.645 673.398 399.209 673.887 399.669C674.376 400.129 674.962 400.473 675.602 400.676" stroke="black" stroke-miterlimit="10"/>
<path d="M677.949 364.161C677.513 364.16 677.079 364.229 676.665 364.365C675.504 362.594 672.777 361.372 669.58 361.372C665.346 361.372 661.919 363.559 661.919 366.251C661.919 368.944 665.346 371.122 669.58 371.122C671.165 371.14 672.734 370.807 674.176 370.148C674.5 370.819 674.999 371.391 675.619 371.804C676.239 372.217 676.958 372.457 677.702 372.498C678.447 372.539 679.188 372.379 679.85 372.037C680.511 371.694 681.069 371.18 681.465 370.549C681.861 369.918 682.081 369.192 682.101 368.447C682.122 367.702 681.942 366.965 681.581 366.313C681.221 365.661 680.692 365.118 680.05 364.739C679.408 364.361 678.676 364.161 677.931 364.161H677.949Z" fill="#3F3D56"/>
<path opacity="0.1" d="M678.294 371.468C677.509 371.468 676.74 371.246 676.075 370.828C675.411 370.41 674.878 369.812 674.539 369.104C673.097 369.762 671.528 370.095 669.943 370.078C665.718 370.078 662.291 367.899 662.291 365.207C662.277 365.045 662.277 364.882 662.291 364.72C662.039 365.191 661.905 365.717 661.901 366.252C661.901 368.909 665.329 371.123 669.562 371.123C671.147 371.14 672.716 370.807 674.158 370.149C674.54 370.939 675.161 371.59 675.933 372.007C676.706 372.424 677.59 372.587 678.461 372.472C679.331 372.357 680.143 371.97 680.781 371.367C681.419 370.764 681.85 369.975 682.014 369.112C681.677 369.814 681.149 370.407 680.492 370.824C679.834 371.24 679.073 371.464 678.294 371.468Z" fill="black"/>
<path opacity="0.1" d="M660.883 364.321C662.055 361.919 664.007 359.986 666.42 358.836C668.832 357.686 671.563 357.387 674.167 357.989C675.989 356.864 678.07 356.225 680.209 356.133C682.349 356.041 684.476 356.499 686.388 357.464C688.3 358.429 689.932 359.868 691.13 361.644C692.327 363.419 693.048 365.473 693.226 367.607C693.226 367.261 693.226 366.916 693.226 366.562C693.221 364.334 692.622 362.148 691.491 360.23C690.36 358.311 688.738 356.728 686.791 355.645C684.845 354.563 682.645 354.018 680.418 354.069C678.191 354.12 676.018 354.764 674.123 355.934C671.519 355.333 668.788 355.631 666.375 356.781C663.963 357.931 662.011 359.865 660.838 362.266C659.378 363.648 658.222 365.32 657.446 367.174C656.669 369.029 656.29 371.025 656.331 373.036C656.331 373.39 656.331 373.735 656.331 374.081C656.505 370.355 658.14 366.848 660.883 364.321Z" fill="black"/>
<path d="M740.731 366.978C743.042 362.7 740.421 357.449 737.401 353.632C734.381 349.814 730.715 345.847 730.794 340.976C730.901 333.988 738.322 329.861 744.256 326.15C748.655 323.394 752.71 320.123 756.336 316.409C757.859 314.985 759.119 313.303 760.055 311.44C761.278 308.704 761.242 305.595 761.171 302.584C760.911 292.606 760.418 282.64 759.692 272.685" stroke="#3F3D56" stroke-width="4" stroke-miterlimit="10"/>
<path d="M770.957 272.154C770.873 270.329 770.331 268.555 769.38 266.995C768.43 265.435 767.102 264.139 765.52 263.227L763.075 268.053L763.146 262.208C761.984 261.861 760.771 261.714 759.559 261.774C757.405 261.875 755.33 262.612 753.594 263.892C751.859 265.172 750.543 266.938 749.811 268.967C749.08 270.995 748.967 273.195 749.486 275.288C750.005 277.381 751.133 279.273 752.727 280.725C754.321 282.177 756.31 283.123 758.443 283.445C760.575 283.766 762.755 283.448 764.706 282.53C766.657 281.613 768.293 280.137 769.406 278.29C770.518 276.443 771.058 274.308 770.957 272.154Z" fill="#6C63FF"/>
<path d="M751.518 345.953C750.374 348.178 748.501 349.941 746.212 350.948C743.922 351.955 741.356 352.144 738.944 351.484C736.532 350.824 734.42 349.354 732.962 347.322C731.505 345.289 730.791 342.818 730.939 340.321C731.088 337.825 732.09 335.455 733.778 333.61C735.466 331.765 737.737 330.556 740.211 330.186C742.684 329.817 745.21 330.309 747.363 331.58C749.517 332.851 751.169 334.824 752.04 337.168L745.23 342.712L752.722 340.941C752.73 342.684 752.317 344.404 751.518 345.953Z" fill="#6C63FF"/>
<path d="M746.133 324.778C743.457 324.906 740.827 324.045 738.745 322.358C736.663 320.671 735.276 318.276 734.848 315.631C734.419 312.986 734.98 310.275 736.423 308.018C737.866 305.76 740.09 304.112 742.671 303.39L742.617 307.88L745.088 303C747.977 302.868 750.8 303.888 752.937 305.836C755.074 307.784 756.351 310.5 756.486 313.389C756.554 314.819 756.339 316.248 755.854 317.595C755.369 318.942 754.623 320.181 753.659 321.239C752.695 322.298 751.532 323.156 750.236 323.765C748.94 324.373 747.537 324.721 746.107 324.787L746.133 324.778Z" fill="#6C63FF"/>
<path d="M772.596 307.171C770.906 307.257 769.219 306.949 767.669 306.27C766.118 305.591 764.748 304.561 763.664 303.261C762.581 301.961 761.816 300.426 761.429 298.779C761.041 297.131 761.043 295.416 761.433 293.77C761.823 292.123 762.591 290.59 763.677 289.291C764.762 287.993 766.135 286.965 767.686 286.289C769.237 285.613 770.925 285.307 772.615 285.396C774.305 285.485 775.951 285.967 777.422 286.802L775.492 292.116L779.459 288.308C780.517 289.267 781.374 290.426 781.982 291.718C782.59 293.01 782.936 294.409 783.002 295.835C783.055 296.844 782.963 297.855 782.727 298.838C782.172 301.138 780.883 303.196 779.055 304.699C777.228 306.202 774.96 307.07 772.596 307.171Z" fill="#6C63FF"/>
<path opacity="0.1" d="M769.496 275.059C766.981 275.342 764.528 276.121 762.004 276.281C759.48 276.44 756.69 275.829 755.105 273.863C754.364 272.724 753.693 271.541 753.094 270.32C752.403 269.248 751.461 268.36 750.349 267.734C749.642 269.116 749.239 270.634 749.166 272.184C749.093 273.735 749.351 275.283 749.925 276.725C750.498 278.168 751.373 279.471 752.491 280.548C753.609 281.625 754.944 282.451 756.406 282.971C757.869 283.49 759.426 283.692 760.973 283.561C762.52 283.43 764.021 282.971 765.376 282.214C766.73 281.456 767.908 280.418 768.829 279.169C769.751 277.92 770.395 276.488 770.718 274.97C770.311 274.988 769.904 275.014 769.496 275.059Z" fill="black"/>
<path opacity="0.1" d="M772.596 307.171C770.717 307.258 768.848 306.857 767.169 306.008C765.491 305.159 764.06 303.89 763.017 302.325C761.973 300.76 761.352 298.952 761.213 297.077C761.075 295.201 761.423 293.321 762.225 291.62C763.092 292.2 763.838 292.943 764.422 293.807C765.069 295.051 765.791 296.255 766.582 297.412C768.274 299.413 771.179 300.069 773.809 299.945C776.44 299.821 778.981 299.059 781.603 298.838C781.966 298.838 782.338 298.776 782.701 298.767C782.16 301.076 780.881 303.146 779.057 304.663C777.234 306.18 774.965 307.06 772.596 307.171Z" fill="black"/>
<path opacity="0.1" d="M746.133 324.778C744.27 324.869 742.414 324.48 740.744 323.648C739.074 322.816 737.646 321.57 736.596 320.027C735.546 318.485 734.91 316.699 734.748 314.84C734.587 312.981 734.906 311.112 735.674 309.412C736.567 310.007 737.347 310.757 737.977 311.626C738.862 312.822 739.349 314.203 740.341 315.302C742.183 317.356 745.274 318.074 748.064 318.012C750.854 317.95 753.378 317.285 756.035 317.082C755.377 319.228 754.073 321.119 752.301 322.496C750.529 323.873 748.375 324.67 746.133 324.778Z" fill="black"/>
<path opacity="0.1" d="M751.518 345.953C750.218 348.385 748.044 350.235 745.435 351.13C742.826 352.025 739.975 351.899 737.456 350.776C734.936 349.654 732.935 347.619 731.855 345.081C730.775 342.543 730.697 339.69 731.636 337.097C732.535 337.684 733.342 338.403 734.027 339.231C735.072 340.497 735.754 341.888 736.949 343.11C739.181 345.298 742.777 346.192 745.983 346.281C747.833 346.279 749.681 346.169 751.518 345.953Z" fill="black"/>
<path d="M881.546 501.594C883.857 497.316 881.236 492.064 878.216 488.247C875.196 484.43 871.529 480.463 871.609 475.592C871.715 468.604 879.137 464.477 885.071 460.766C889.469 458.009 893.525 454.739 897.151 451.024C898.674 449.601 899.934 447.919 900.87 446.056C902.092 443.319 902.057 440.211 901.986 437.2C901.732 427.221 901.239 417.255 900.507 407.301" stroke="#3F3D56" stroke-width="4" stroke-miterlimit="10"/>
<path d="M911.772 406.769C911.688 404.944 911.146 403.17 910.195 401.61C909.245 400.05 907.917 398.754 906.335 397.842L903.89 402.669L903.961 396.824C902.813 396.482 901.616 396.335 900.419 396.39C898.265 396.49 896.189 397.227 894.454 398.507C892.719 399.788 891.402 401.554 890.671 403.582C889.939 405.611 889.826 407.811 890.345 409.904C890.864 411.997 891.992 413.889 893.586 415.341C895.181 416.792 897.17 417.739 899.302 418.06C901.434 418.382 903.614 418.063 905.565 417.146C907.517 416.228 909.152 414.753 910.265 412.906C911.378 411.059 911.918 408.923 911.817 406.769H911.772Z" fill="#6C63FF"/>
<path d="M892.333 480.569C891.189 482.793 889.316 484.556 887.027 485.563C884.737 486.57 882.171 486.759 879.759 486.099C877.347 485.439 875.235 483.969 873.778 481.937C872.32 479.905 871.606 477.433 871.754 474.936C871.903 472.44 872.905 470.07 874.593 468.225C876.281 466.38 878.552 465.171 881.026 464.801C883.499 464.432 886.025 464.924 888.178 466.195C890.332 467.466 891.984 469.439 892.855 471.783L886.045 477.327L893.537 475.556C893.545 477.299 893.132 479.019 892.333 480.569Z" fill="#6C63FF"/>
<path d="M886.948 459.393C884.272 459.522 881.642 458.66 879.56 456.973C877.478 455.286 876.091 452.891 875.663 450.246C875.234 447.601 875.795 444.891 877.238 442.633C878.681 440.375 880.905 438.728 883.485 438.005L883.432 442.495L885.903 437.615C888.792 437.483 891.615 438.503 893.752 440.451C895.889 442.399 897.166 445.115 897.301 448.004C897.369 449.434 897.154 450.864 896.669 452.211C896.184 453.558 895.438 454.796 894.474 455.855C893.51 456.913 892.347 457.772 891.051 458.38C889.755 458.989 888.352 459.336 886.922 459.402L886.948 459.393Z" fill="#6C63FF"/>
<path d="M913.411 441.787C911.721 441.873 910.034 441.565 908.484 440.886C906.934 440.207 905.563 439.177 904.48 437.877C903.397 436.576 902.631 435.042 902.244 433.394C901.856 431.747 901.858 430.032 902.248 428.385C902.638 426.739 903.407 425.206 904.492 423.907C905.577 422.609 906.95 421.581 908.501 420.905C910.053 420.229 911.74 419.923 913.43 420.012C915.12 420.101 916.766 420.582 918.238 421.418L916.307 426.731L920.275 422.923C921.332 423.883 922.189 425.042 922.797 426.334C923.405 427.626 923.752 429.025 923.817 430.451C923.87 431.46 923.778 432.471 923.543 433.453C922.987 435.754 921.698 437.811 919.871 439.315C918.043 440.818 915.775 441.686 913.411 441.787Z" fill="#6C63FF"/>
<path opacity="0.1" d="M910.311 409.674C907.796 409.958 905.343 410.737 902.819 410.896C900.295 411.056 897.505 410.445 895.92 408.479C895.179 407.339 894.508 406.156 893.909 404.936C893.218 403.863 892.276 402.976 891.164 402.35C890.457 403.732 890.054 405.249 889.981 406.8C889.907 408.35 890.166 409.899 890.74 411.341C891.313 412.783 892.188 414.087 893.306 415.164C894.424 416.241 895.759 417.067 897.221 417.586C898.684 418.106 900.241 418.307 901.788 418.177C903.334 418.046 904.835 417.587 906.19 416.829C907.545 416.072 908.723 415.034 909.644 413.785C910.566 412.535 911.21 411.104 911.533 409.586C911.126 409.603 910.718 409.63 910.311 409.674Z" fill="black"/>
<path opacity="0.1" d="M913.411 441.787C911.532 441.873 909.662 441.473 907.984 440.624C906.306 439.775 904.875 438.506 903.832 436.941C902.788 435.376 902.167 433.568 902.028 431.692C901.89 429.817 902.238 427.937 903.04 426.235C903.907 426.816 904.653 427.559 905.236 428.423C905.884 429.667 906.605 430.87 907.397 432.027C909.089 434.029 911.994 434.684 914.624 434.56C917.254 434.436 919.796 433.675 922.418 433.453C922.781 433.453 923.153 433.391 923.516 433.382C922.975 435.692 921.696 437.762 919.872 439.279C918.049 440.795 915.78 441.676 913.411 441.787Z" fill="black"/>
<path opacity="0.1" d="M886.948 459.394C885.085 459.485 883.229 459.096 881.559 458.264C879.889 457.432 878.461 456.185 877.411 454.643C876.361 453.101 875.725 451.314 875.564 449.456C875.402 447.597 875.721 445.728 876.489 444.028C877.383 444.622 878.162 445.372 878.792 446.242C879.677 447.438 880.164 448.819 881.156 449.917C882.998 451.972 886.089 452.689 888.879 452.627C891.669 452.565 894.193 451.901 896.85 451.697C896.192 453.843 894.888 455.734 893.116 457.112C891.344 458.489 889.19 459.286 886.948 459.394Z" fill="black"/>
<path opacity="0.1" d="M892.333 480.569C891.033 483.001 888.859 484.851 886.25 485.746C883.641 486.641 880.79 486.514 878.271 485.392C875.751 484.27 873.75 482.235 872.67 479.697C871.59 477.159 871.512 474.306 872.45 471.712C873.35 472.3 874.156 473.019 874.842 473.847C875.887 475.113 876.613 476.504 877.764 477.726C879.996 479.913 883.592 480.808 886.798 480.896C888.647 480.894 890.496 480.785 892.333 480.569Z" fill="black"/>
<path d="M423.33 376.64C423.342 375.281 423.034 373.939 422.433 372.721C421.832 371.503 420.953 370.443 419.868 369.626C419.854 367.224 418.993 364.905 417.436 363.077C415.878 361.249 413.725 360.03 411.357 359.636C410.991 357.89 410.172 356.272 408.983 354.943C407.794 353.614 406.276 352.621 404.582 352.064C404.17 351.935 403.75 351.837 403.324 351.771H403.2H402.979H402.802H402.607H402.368H401.827C399.474 351.826 397.216 352.711 395.452 354.27C393.689 355.829 392.534 357.962 392.192 360.291C389.083 359.574 386.24 360.504 385.718 362.47C385.587 362.992 385.618 363.542 385.806 364.046C386.338 365.57 388.065 367.031 390.376 367.748L390.677 367.837L391.129 367.952H391.226C390.733 369.002 390.479 370.148 390.482 371.308C390.475 372.732 390.861 374.13 391.597 375.349C392.333 376.568 393.39 377.56 394.654 378.216L394.45 378.34C394.162 378.602 393.933 378.922 393.777 379.279C393.218 380.268 392.781 381.32 392.475 382.414C392.254 383.353 392.218 384.327 391.944 385.257C391.43 386.966 390.119 388.41 389.969 390.19C389.898 390.987 390.031 391.961 389.464 392.475C389.325 392.596 389.173 392.703 389.012 392.794C388.62 393.071 388.286 393.423 388.029 393.83C387.859 394.199 387.626 394.535 387.338 394.822C386.825 395.203 385.983 395.167 385.735 395.761C385.488 396.354 386.134 397.054 385.983 397.7C385.833 398.347 385.284 398.471 384.885 398.834C384.422 399.332 384.095 399.943 383.938 400.605C383.1 400.765 382.237 400.738 381.41 400.527C380.584 400.316 379.814 399.925 379.155 399.383C379.381 399.955 379.547 400.548 379.651 401.154C378.88 400.566 378.006 400.127 377.074 399.861C376.025 399.384 375.089 398.69 374.329 397.824L375.799 397.62L369.307 387.71L367.385 387.312L369.103 390.615C368.96 390.681 368.833 390.777 368.732 390.898C368.63 391.02 368.558 391.162 368.519 391.315C368.427 391.682 368.406 392.064 368.457 392.44C368.545 393.334 368.693 394.222 368.9 395.096L369.396 397.417C369.44 397.629 369.493 397.851 369.555 398.063C368.907 398.031 368.258 398.103 367.633 398.276C366.346 397.797 365.004 397.479 363.639 397.328C363.347 397.269 363.046 397.269 362.753 397.328C362.423 397.485 362.134 397.719 361.912 398.01C360.794 399.307 359.801 400.707 358.945 402.19C355.403 408.266 350.789 413.571 346.422 419.062C343.411 420.284 340.374 421.444 337.336 422.604L330.8 425.101C329.526 425.68 328.143 425.982 326.744 425.987C326.124 425.987 325.353 425.854 324.973 426.386C324.802 426.662 324.668 426.96 324.574 427.271L323.901 427.342C323.591 426.279 323.056 425.294 322.333 424.455C322.174 424.482 322.024 424.548 321.895 424.647C321.767 424.746 321.665 424.875 321.598 425.022C321.439 425.314 321.341 425.633 321.155 425.907C320.81 426.421 320.199 426.669 319.765 427.103C319.331 427.537 319.057 428.21 318.578 428.653C317.926 429.135 317.16 429.44 316.355 429.539C315.142 429.822 313.971 430.266 312.875 430.858C312.474 431.109 312.042 431.309 311.591 431.451C311.092 431.549 310.581 431.567 310.076 431.505L306.622 431.248C306.312 431.209 305.998 431.224 305.692 431.292C305.346 431.433 305.053 431.681 304.855 431.999C304.658 432.317 304.567 432.69 304.594 433.063C304.639 433.438 304.759 433.801 304.948 434.128C305.137 434.455 305.39 434.741 305.692 434.967C306.29 435.409 306.953 435.752 307.658 435.986C310.648 437.15 313.728 438.062 316.869 438.714V439.413C319.066 440.521 321.493 441.097 323.954 441.096C324.137 441.108 324.319 441.075 324.485 440.999C324.712 440.829 324.869 440.584 324.928 440.308C325.663 438.111 326.127 435.833 326.31 433.524C326.742 433.495 327.165 433.387 327.559 433.205C328.745 432.877 329.932 433.692 331.163 433.825C332.677 433.993 334.077 433.108 335.511 432.567L336.131 432.364C335.723 432.889 335.24 433.351 334.697 433.736C334.103 434.161 333.439 434.48 332.863 434.923C332.376 435.365 331.855 435.767 331.305 436.128C330.917 436.307 330.517 436.461 330.109 436.588C329.505 436.812 328.931 437.11 328.4 437.474C327.929 437.754 327.531 438.143 327.24 438.607C327.094 438.845 327.009 439.114 326.992 439.392C326.975 439.67 327.027 439.948 327.142 440.201C327.265 440.408 327.43 440.586 327.627 440.724C327.824 440.861 328.048 440.955 328.285 440.999C328.751 441.069 329.226 441.069 329.693 440.999C331.57 440.857 333.439 440.689 335.308 440.52C336.098 440.47 336.883 440.358 337.655 440.184C338.062 440.086 338.47 439.953 338.877 439.838C339.576 439.662 340.291 439.555 341.011 439.519C341.22 439.503 341.43 439.524 341.631 439.581C342.065 439.723 342.375 440.166 342.818 440.255C343.118 440.292 343.423 440.253 343.704 440.139C345.069 439.845 346.461 439.697 347.857 439.697C348.468 439.697 349.186 439.546 349.469 438.979C349.752 438.412 349.239 437.5 349.008 436.748C348.89 436.266 348.825 435.773 348.814 435.277C348.707 434.057 348.358 432.871 347.786 431.788C347.478 431.283 347.22 430.749 347.016 430.194C349.694 429.176 352.256 427.876 354.659 426.315C355.975 425.362 357.45 424.651 359.016 424.216C360.865 423.995 362.74 424.214 364.489 424.853C368.747 426.087 372.936 427.548 377.039 429.229C378.996 430.034 380.944 430.885 382.963 431.496C383.552 432.286 384.264 432.976 385.071 433.542C386.466 434.326 388.032 434.755 389.632 434.79C391.767 434.985 393.91 435.065 396.053 435.029C397.694 435.101 399.329 434.798 400.835 434.144C401.195 433.964 401.531 433.741 401.836 433.48C402.415 433.529 402.997 433.45 403.541 433.25C404.086 433.049 404.58 432.732 404.989 432.319C406.15 431.324 406.986 430.004 407.389 428.529C407.912 426.51 407.513 424.101 408.753 422.489C409.081 422.046 409.515 421.692 409.842 421.249C410.239 420.643 410.437 419.927 410.409 419.203C410.424 419.175 410.441 419.148 410.462 419.124C410.734 418.473 410.913 417.787 410.994 417.087C411.146 416.536 411.338 415.997 411.569 415.475C412.199 413.912 412.749 412.319 413.217 410.701C413.536 409.625 413.79 408.531 413.978 407.424C414.111 406.539 414.191 405.653 414.262 404.767C414.355 403.372 414.626 401.994 415.067 400.667C416.176 397.508 416.803 394.2 416.927 390.854V390.659C418.559 390.472 420.062 389.681 421.14 388.442C422.218 387.203 422.794 385.606 422.755 383.964C422.755 382.978 422.547 382.003 422.144 381.103C422.927 379.747 423.337 378.207 423.33 376.64ZM391.643 415.138C391.74 415.484 391.855 415.82 391.97 416.157C391.448 415.652 390.943 415.129 390.42 414.616C390.624 414.686 390.837 414.749 391.032 414.828C391.236 414.912 391.432 415.016 391.616 415.138H391.643ZM389.136 413.438C386.072 410.781 382.53 408.717 379.394 406.14C381.104 406.982 382.769 407.965 384.416 408.903C386.37 410.019 388.351 411.091 390.358 412.118C390.029 412.633 389.605 413.08 389.11 413.438H389.136ZM390.438 406.742L390.589 406.592C390.589 406.973 390.589 407.318 390.589 407.646L389.765 407.362C389.993 407.169 390.209 406.962 390.412 406.742H390.438ZM363.488 413.916C364.746 412.493 365.839 410.933 366.748 409.266C367.961 411.383 369.936 412.915 371.61 414.695C368.909 414.35 366.199 414.058 363.488 413.916Z" fill="url(#paint1_linear)"/>
<path d="M367.846 388.127L369.777 388.517L376.357 398.25L373.461 398.639L367.846 388.127Z" fill="#2F2E41"/>
<path d="M321.031 427.608C321.555 429.326 322.2 431.004 322.962 432.63C325.143 432.169 327.288 431.557 329.383 430.797C328.97 430.182 328.523 429.591 328.046 429.025C327.526 428.46 326.912 427.989 326.23 427.635C325.504 427.471 324.751 427.471 324.025 427.635C323.033 427.608 322.032 427.626 321.031 427.608Z" fill="#FBBEBE"/>
<path d="M326.239 430.203C325.715 429.969 325.248 429.624 324.869 429.193C324.49 428.762 324.209 428.255 324.043 427.706C323.705 426.602 323.135 425.584 322.369 424.721C322.208 424.743 322.055 424.806 321.925 424.904C321.794 425.001 321.691 425.131 321.625 425.279C321.466 425.563 321.368 425.881 321.191 426.165C320.837 426.67 320.217 426.918 319.774 427.343C319.331 427.768 319.066 428.432 318.587 428.866C317.93 429.35 317.158 429.655 316.347 429.752C315.114 430.03 313.923 430.467 312.804 431.053C312.395 431.298 311.958 431.495 311.502 431.638C310.997 431.713 310.484 431.713 309.979 431.638L306.49 431.39C306.196 431.342 305.897 431.342 305.604 431.39C305.248 431.519 304.945 431.763 304.744 432.084C304.544 432.405 304.457 432.785 304.497 433.161C304.538 433.535 304.658 433.895 304.849 434.219C305.04 434.542 305.297 434.822 305.604 435.039C306.21 435.474 306.879 435.814 307.588 436.048C310.626 437.192 313.754 438.081 316.94 438.705V439.396C319.159 440.485 321.598 441.052 324.069 441.052C324.251 441.063 324.433 441.033 324.601 440.964C324.827 440.794 324.984 440.549 325.044 440.273C325.883 437.827 326.375 435.275 326.505 432.692C326.562 432.036 326.511 431.374 326.354 430.735C326.159 430.106 326.815 430.371 326.213 430.123" fill="#2F2E41"/>
<path d="M393.157 417.051C382.813 417.671 372.593 414.642 362.231 414.324C360.945 414.239 359.653 414.319 358.387 414.563C357.069 414.92 355.793 415.416 354.579 416.042C349.026 418.628 343.279 420.771 337.54 422.905L330.942 425.359C329.658 425.938 328.267 426.24 326.859 426.244C326.23 426.244 325.46 426.111 325.088 426.634C324.016 428.228 324.521 430.557 325.229 432.346C325.46 432.922 325.849 433.551 326.469 433.613C326.904 433.583 327.33 433.475 327.727 433.294C328.922 432.975 330.118 433.781 331.358 433.914C332.881 434.073 334.298 433.205 335.742 432.674C338.133 431.788 340.737 431.788 343.252 431.399C347.459 430.699 351.364 428.742 355.013 426.519C356.34 425.573 357.824 424.872 359.397 424.446C361.26 424.227 363.149 424.442 364.914 425.075C369.206 426.286 373.43 427.723 377.57 429.379C379.722 430.316 381.928 431.123 384.177 431.797C389.085 433.081 394.274 432.771 398.993 430.911C400.65 430.256 402.447 429.14 402.536 427.316C402.598 426.297 401.801 425.403 401.278 424.526C400.942 423.968 400.596 423.41 400.233 422.87C398.462 420.302 396.301 416.865 393.157 417.051Z" fill="#2F2E41"/>
<path opacity="0.1" d="M393.157 417.051C382.813 417.671 372.593 414.642 362.231 414.324C360.945 414.239 359.653 414.319 358.387 414.563C357.069 414.92 355.793 415.416 354.579 416.042C349.026 418.628 343.279 420.771 337.54 422.905L330.942 425.359C329.658 425.938 328.267 426.24 326.859 426.244C326.23 426.244 325.46 426.111 325.088 426.634C324.016 428.228 324.521 430.557 325.229 432.346C325.46 432.922 325.849 433.551 326.469 433.613C326.904 433.583 327.33 433.475 327.727 433.294C328.922 432.975 330.118 433.781 331.358 433.914C332.881 434.073 334.298 433.205 335.742 432.674C338.133 431.788 340.737 431.788 343.252 431.399C347.459 430.699 351.364 428.742 355.013 426.519C356.34 425.573 357.824 424.872 359.397 424.446C361.26 424.227 363.149 424.442 364.914 425.075C369.206 426.286 373.43 427.723 377.57 429.379C379.722 430.316 381.928 431.123 384.177 431.797C389.085 433.081 394.274 432.771 398.993 430.911C400.65 430.256 402.447 429.14 402.536 427.316C402.598 426.297 401.801 425.403 401.278 424.526C400.942 423.968 400.596 423.41 400.233 422.87C398.462 420.302 396.301 416.865 393.157 417.051Z" fill="black"/>
<path d="M340.896 428.086C342.514 428.635 344.146 429.143 345.794 429.61C346.679 428.095 348.451 427.041 348.831 425.306C348.854 425.23 348.854 425.15 348.831 425.075C348.788 425.002 348.723 424.943 348.645 424.907C347.461 424.257 346.15 423.873 344.802 423.782C343.739 423.72 343.252 424.827 342.774 425.607C342.588 425.952 341.33 428.255 340.896 428.086Z" fill="#FBBEBE"/>
<path d="M343.163 427.006C342.679 426.924 342.218 426.742 341.807 426.472C341.397 426.202 341.048 425.85 340.781 425.438C340.56 425.04 340.312 424.499 339.851 424.552C339.391 424.606 339.24 425.084 339.143 425.5C338.836 427.069 338.388 428.608 337.805 430.097C337.221 431.593 336.23 432.897 334.945 433.86C334.342 434.277 333.678 434.587 333.085 435.029C332.594 435.465 332.07 435.861 331.517 436.216C331.126 436.391 330.724 436.539 330.313 436.659C329.708 436.887 329.131 437.184 328.595 437.545C328.117 437.819 327.713 438.205 327.417 438.669C327.27 438.902 327.186 439.168 327.17 439.442C327.155 439.716 327.209 439.99 327.328 440.237C327.452 440.441 327.618 440.616 327.815 440.75C328.012 440.885 328.236 440.975 328.471 441.016C328.943 441.087 329.424 441.087 329.897 441.016C331.783 440.883 333.669 440.715 335.556 440.547C336.351 440.496 337.141 440.386 337.92 440.219L339.151 439.883C339.855 439.697 340.577 439.59 341.304 439.564C341.515 439.544 341.729 439.566 341.932 439.626C342.366 439.768 342.676 440.202 343.128 440.29C343.428 440.319 343.731 440.28 344.014 440.175C345.39 439.88 346.795 439.734 348.203 439.741C348.823 439.741 349.549 439.582 349.832 439.032C350.186 438.342 349.602 437.571 349.363 436.827C349.248 436.354 349.183 435.87 349.168 435.384C349.062 434.179 348.709 433.01 348.132 431.947C347.653 431.062 346.998 430.088 347.335 429.149C347.502 428.851 347.61 428.523 347.653 428.184C347.521 426.66 344.031 427.201 343.163 427.006Z" fill="#2F2E41"/>
<path d="M377.65 400.455C375.814 399.65 374.343 398.192 373.523 396.363C373.354 395.973 373.213 395.557 373.044 395.168C372.504 393.848 371.661 392.674 370.582 391.74C370.469 391.62 370.331 391.524 370.179 391.458C370.027 391.393 369.863 391.359 369.697 391.359C369.532 391.409 369.384 391.502 369.267 391.628C369.15 391.754 369.069 391.909 369.033 392.077C368.934 392.437 368.909 392.814 368.962 393.184C369.052 394.055 369.2 394.919 369.404 395.77L369.909 398.055C369.976 398.404 370.08 398.746 370.219 399.073C370.435 399.456 370.721 399.795 371.061 400.074C371.521 400.499 371.991 400.906 372.46 401.314C372.731 401.55 373.028 401.755 373.346 401.925C373.84 402.161 374.369 402.316 374.913 402.385C377.026 402.661 379.043 403.438 380.794 404.653C380.794 404.653 380.794 403.12 380.794 402.952C380.771 402.507 380.617 402.079 380.351 401.721C379.54 401.13 378.623 400.7 377.65 400.455Z" fill="#FBBEBE"/>
<path opacity="0.1" d="M377.65 400.455C375.814 399.65 374.343 398.192 373.523 396.363C373.354 395.973 373.213 395.557 373.044 395.168C372.504 393.848 371.661 392.674 370.582 391.74C370.469 391.62 370.331 391.524 370.179 391.458C370.027 391.393 369.863 391.359 369.697 391.359C369.532 391.409 369.384 391.502 369.267 391.628C369.15 391.754 369.069 391.909 369.033 392.077C368.934 392.437 368.909 392.814 368.962 393.184C369.052 394.055 369.2 394.919 369.404 395.77L369.909 398.055C369.976 398.404 370.08 398.746 370.219 399.073C370.435 399.456 370.721 399.795 371.061 400.074C371.521 400.499 371.991 400.906 372.46 401.314C372.731 401.55 373.028 401.755 373.346 401.925C373.84 402.161 374.369 402.316 374.913 402.385C377.026 402.661 379.043 403.438 380.794 404.653C380.794 404.653 380.794 403.12 380.794 402.952C380.771 402.507 380.617 402.079 380.351 401.721C379.54 401.13 378.623 400.7 377.65 400.455Z" fill="black"/>
<path d="M398.71 382.973C400.099 382.973 401.225 381.839 401.225 380.44C401.225 379.041 400.099 377.907 398.71 377.907C397.321 377.907 396.195 379.041 396.195 380.44C396.195 381.839 397.321 382.973 398.71 382.973Z" fill="#2F2E41"/>
<path d="M397.151 378.916C396.478 378.755 395.768 378.856 395.167 379.2C394.877 379.458 394.645 379.775 394.485 380.13C393.922 381.099 393.482 382.134 393.175 383.212C392.953 384.097 392.918 385.098 392.634 386.01C392.121 387.693 390.801 389.119 390.651 390.872C390.58 391.661 390.713 392.582 390.137 393.113C389.996 393.235 389.845 393.345 389.685 393.441C389.287 393.707 388.949 394.054 388.693 394.459C388.52 394.82 388.283 395.147 387.994 395.425C387.48 395.805 386.63 395.77 386.382 396.31C386.134 396.85 386.78 397.585 386.63 398.223C386.479 398.861 385.921 398.985 385.523 399.339C385.053 399.835 384.723 400.446 384.566 401.11C383.725 401.272 382.858 401.25 382.026 401.043C381.194 400.837 380.417 400.452 379.749 399.915C380.333 401.69 380.588 403.557 380.501 405.423C380.545 405.722 380.529 406.026 380.453 406.319C380.377 406.611 380.243 406.884 380.059 407.124C382.056 407.272 384.035 407.617 385.966 408.151C386.802 408.43 387.706 408.43 388.543 408.151C388.991 407.911 389.393 407.593 389.73 407.212C390.792 406.132 391.908 404.954 392.165 403.457C392.229 402.611 392.243 401.763 392.209 400.915C392.31 399.864 392.527 398.828 392.856 397.825C393.417 395.742 393.793 393.614 393.981 391.466C394.096 390.137 395.247 389.075 395.849 387.923C396.983 385.683 398.152 383.353 398.232 380.838C398.267 380.023 397.984 379.005 397.151 378.916Z" fill="#2F2E41"/>
<path opacity="0.1" d="M397.151 378.916C396.478 378.755 395.768 378.856 395.167 379.2C394.877 379.458 394.645 379.775 394.485 380.13C393.922 381.099 393.482 382.134 393.175 383.212C392.953 384.097 392.918 385.098 392.634 386.01C392.121 387.693 390.801 389.119 390.651 390.872C390.58 391.661 390.713 392.582 390.137 393.113C389.996 393.235 389.845 393.345 389.685 393.441C389.287 393.707 388.949 394.054 388.693 394.459C388.52 394.82 388.283 395.147 387.994 395.425C387.48 395.805 386.63 395.77 386.382 396.31C386.134 396.85 386.78 397.585 386.63 398.223C386.479 398.861 385.921 398.985 385.523 399.339C385.053 399.835 384.723 400.446 384.566 401.11C383.725 401.272 382.858 401.25 382.026 401.043C381.194 400.837 380.417 400.452 379.749 399.915C380.333 401.69 380.588 403.557 380.501 405.423C380.545 405.722 380.529 406.026 380.453 406.319C380.377 406.611 380.243 406.884 380.059 407.124C382.056 407.272 384.035 407.617 385.966 408.151C386.802 408.43 387.706 408.43 388.543 408.151C388.991 407.911 389.393 407.593 389.73 407.212C390.792 406.132 391.908 404.954 392.165 403.457C392.229 402.611 392.243 401.763 392.209 400.915C392.31 399.864 392.527 398.828 392.856 397.825C393.417 395.742 393.793 393.614 393.981 391.466C394.096 390.137 395.247 389.075 395.849 387.923C396.983 385.683 398.152 383.353 398.232 380.838C398.267 380.023 397.984 379.005 397.151 378.916Z" fill="black"/>
<path d="M394.795 419.23C392.643 418.203 391.067 416.299 389.322 414.66C386.001 411.534 381.936 409.347 378.438 406.397C376.118 404.458 374.01 402.2 371.503 400.57C369.258 399.147 366.716 398.259 364.073 397.975C363.782 397.908 363.479 397.908 363.187 397.975C362.853 398.117 362.562 398.347 362.346 398.639C361.217 399.913 360.211 401.292 359.344 402.758C354.916 410.285 348.619 416.609 343.402 423.605C343.283 423.75 343.195 423.92 343.146 424.101C343.124 424.372 343.192 424.643 343.34 424.872L344.403 426.944C344.997 428.113 345.953 429.468 347.228 429.238C347.803 429.072 348.316 428.742 348.707 428.29L353.472 423.729L358.467 418.956C361.39 416.166 364.365 413.305 366.278 409.727C367.766 412.313 370.414 414.005 372.221 416.37C372.912 417.255 373.478 418.256 374.098 419.212C375.081 420.736 376.206 422.17 377.322 423.641L383.052 430.947C383.778 431.979 384.677 432.878 385.709 433.604C387.122 434.373 388.697 434.795 390.305 434.835C392.458 435.027 394.619 435.104 396.779 435.065C398.434 435.132 400.083 434.829 401.606 434.18C402.365 433.846 403.014 433.303 403.476 432.615C403.939 431.926 404.196 431.121 404.219 430.292C404.13 429.434 403.849 428.607 403.395 427.874C401.323 424.181 398.648 421.063 394.795 419.23Z" fill="#2F2E41"/>
<path d="M400.26 384.141C401.331 384.141 402.199 383.269 402.199 382.193C402.199 381.117 401.331 380.245 400.26 380.245C399.189 380.245 398.32 381.117 398.32 382.193C398.32 383.269 399.189 384.141 400.26 384.141Z" fill="#E8E8F0"/>
<path d="M399.835 380.732C400.268 381.601 400.344 382.605 400.047 383.53C399.742 384.439 399.322 385.305 398.799 386.108C398.349 386.935 397.805 387.707 397.178 388.41C400.171 388.552 403.067 387.383 405.698 385.966C407.823 384.823 409.94 383.415 411.073 381.281C410.735 381.361 410.384 381.37 410.042 381.306C409.7 381.242 409.376 381.107 409.09 380.909C408.519 380.516 408.008 380.042 407.575 379.501L406.078 377.818C405.739 377.448 405.442 377.041 405.193 376.605C404.864 376.008 404.725 375.325 404.794 374.647C404.198 375.27 403.532 375.822 402.811 376.295C401.739 376.994 400.561 377.499 399.481 378.19C399.109 378.438 398.258 378.828 398.48 379.324C398.701 379.82 399.534 380.2 399.835 380.732Z" fill="#FBBEBE"/>
<path opacity="0.1" d="M399.835 380.732C400.268 381.601 400.344 382.605 400.047 383.53C399.742 384.439 399.322 385.305 398.799 386.108C398.349 386.935 397.805 387.707 397.178 388.41C400.171 388.552 403.067 387.383 405.698 385.966C407.823 384.823 409.94 383.415 411.073 381.281C410.735 381.361 410.384 381.37 410.042 381.306C409.7 381.242 409.376 381.107 409.09 380.909C408.519 380.516 408.008 380.042 407.575 379.501L406.078 377.818C405.739 377.448 405.442 377.041 405.193 376.605C404.864 376.008 404.725 375.325 404.794 374.647C404.198 375.27 403.532 375.822 402.811 376.295C401.739 376.994 400.561 377.499 399.481 378.19C399.109 378.438 398.258 378.828 398.48 379.324C398.701 379.82 399.534 380.2 399.835 380.732Z" fill="black"/>
<path d="M399.87 381.024C399.567 381.451 399.404 381.961 399.404 382.485C399.404 383.009 399.567 383.519 399.87 383.946C399.959 384.053 400.278 384.717 400.41 384.726C400.476 384.72 400.539 384.702 400.597 384.671C400.655 384.641 400.706 384.599 400.747 384.549C401.428 383.839 402.061 383.084 402.642 382.29C403.235 381.498 404.088 380.94 405.051 380.714C406.244 380.668 407.417 381.034 408.372 381.75C408.817 381.953 409.208 382.256 409.515 382.636C409.728 383.026 409.855 383.458 409.887 383.902C410.176 386.575 410.289 389.264 410.223 391.952C410.274 393.894 410.147 395.835 409.842 397.753C409.648 398.736 409.364 399.702 409.231 400.702C409.127 401.584 409.086 402.472 409.107 403.359V407.061C409.084 407.74 409.131 408.42 409.249 409.089C409.426 409.895 409.807 410.648 410.064 411.436C410.329 412.342 410.51 413.27 410.604 414.208L411.109 418.034C411.268 419.239 411.392 420.558 410.657 421.577C410.33 422.011 409.896 422.365 409.559 422.799C408.31 424.428 408.673 426.758 408.186 428.75C407.776 430.209 406.929 431.507 405.76 432.47C405.343 432.883 404.84 433.199 404.288 433.396C403.736 433.593 403.147 433.667 402.563 433.612C401.004 433.32 400.074 431.699 399.649 430.167C399.224 428.635 399.073 426.97 398.152 425.677C397.307 424.698 396.308 423.864 395.194 423.206C394.067 422.539 393.24 421.464 392.883 420.204C392.785 419.646 392.883 419.07 392.785 418.504C392.702 417.79 392.429 417.112 391.994 416.541C391.559 415.969 390.979 415.524 390.314 415.253C389.517 414.943 388.543 414.828 388.083 414.102C389.223 413.388 390.054 412.273 390.412 410.976C390.764 409.688 390.955 408.361 390.979 407.026L391.244 402.598C391.368 400.605 391.421 398.639 392.298 396.85C392.688 396.053 393.184 395.3 393.582 394.512C394.122 393.404 394.581 392.259 394.955 391.084C395.593 389.26 396.23 387.436 396.797 385.594C397.018 384.699 397.358 383.838 397.807 383.034C398.285 382.202 398.976 381.201 399.87 381.024Z" fill="#E8E8F0"/>
<path d="M389.995 409.931H391.173L391.421 408.16C391.453 407.804 391.537 407.455 391.669 407.124C391.864 406.772 392.092 406.439 392.351 406.132C393.502 404.493 393.423 402.323 393.706 400.331C394.22 397.698 395.09 395.148 396.292 392.75L398.577 387.658C398.785 387.241 398.951 386.805 399.073 386.356C399.169 385.86 399.216 385.355 399.215 384.85C399.215 384.062 399.463 381.192 399.489 380.422C399.489 380.13 398.843 380.289 398.71 380.032C398.426 379.465 398.037 380.998 397.497 381.334C396.989 381.721 396.62 382.262 396.443 382.875C395.947 384.15 395.646 385.532 395.185 386.798C394.785 388.12 394.049 389.316 393.051 390.27C392.581 390.678 392.041 391.005 391.598 391.448C390.181 392.847 390.04 395.07 389.995 397.072C389.96 398.294 389.73 409.931 389.995 409.931Z" fill="#2F2E41"/>
<path d="M406.946 378.907C406.399 379.194 405.925 379.602 405.561 380.101C405.197 380.601 404.952 381.177 404.847 381.786C404.645 383.007 404.288 384.197 403.785 385.328C402.35 387.826 398.692 388.552 397.674 391.253C397.418 392.161 397.281 393.099 397.266 394.043C397.089 395.982 396.451 397.851 396.257 399.782C396.159 401.284 396.195 402.793 396.363 404.289L397.647 419.54C397.893 421.783 397.764 424.052 397.266 426.253C398.583 426.441 399.925 426.218 401.11 425.615C402.306 425.066 403.404 424.313 404.564 423.676C406.548 422.578 408.744 421.807 410.489 420.346C410.801 420.097 411.071 419.797 411.286 419.46C411.553 418.82 411.731 418.147 411.817 417.459C411.968 416.919 412.16 416.392 412.393 415.882C413.032 414.343 413.588 412.77 414.058 411.171C414.377 410.113 414.632 409.036 414.819 407.947C414.961 407.061 415.041 406.176 415.112 405.29C415.204 403.917 415.478 402.562 415.927 401.261C417.038 398.151 417.668 394.889 417.795 391.589C417.83 391.115 417.797 390.638 417.698 390.172C417.503 389.603 417.242 389.059 416.918 388.552C416.387 387.551 416.033 386.453 415.572 385.434C414.316 383.191 412.516 381.3 410.338 379.935C409.311 379.235 408.106 378.491 406.946 378.907Z" fill="#2F2E41"/>
<path d="M380.192 403.794C379.282 403.316 378.459 402.691 377.756 401.943C377.437 401.571 377.172 401.154 376.87 400.782C376.049 399.899 374.982 399.282 373.806 399.011C372.643 398.756 371.454 398.64 370.264 398.666C369.465 398.612 368.663 398.708 367.899 398.949C367.518 399.077 367.175 399.297 366.901 399.591C366.628 399.885 366.432 400.243 366.331 400.632C366.299 401.113 366.392 401.595 366.602 402.029C366.812 402.464 367.13 402.837 367.527 403.112C368.218 403.679 369.035 404.074 369.909 404.263C370.621 404.389 371.34 404.475 372.061 404.52C376.295 404.963 380.076 407.265 383.787 409.364C387.046 411.218 390.37 412.942 393.759 414.536C393.891 413.523 393.947 412.502 393.928 411.481C393.928 410.719 393.866 409.55 393.148 409.098C392.128 408.671 391.065 408.354 389.978 408.151C387.792 407.437 385.659 406.573 383.592 405.565C382.423 405.06 381.299 404.44 380.192 403.794Z" fill="#FBBEBE"/>
<path d="M398.71 379.864C402.877 379.864 406.256 376.466 406.256 372.274C406.256 368.082 402.877 364.684 398.71 364.684C394.543 364.684 391.165 368.082 391.165 372.274C391.165 376.466 394.543 379.864 398.71 379.864Z" fill="#FBBEBE"/>
<path d="M409.098 387.507C408.496 388.353 408.005 389.272 407.637 390.243C406.752 392.156 405.246 393.786 404.511 395.814C403.776 397.842 403.767 400.446 402.253 402.102C401.949 402.356 401.72 402.686 401.588 403.058C401.582 403.29 401.559 403.521 401.517 403.749C401.296 404.351 400.313 404.378 400.127 404.998C400.074 405.175 400.127 405.37 400.038 405.547C399.888 405.946 399.357 406.008 399.011 406.247C398.276 406.743 398.427 407.894 397.904 408.611C397.676 408.878 397.382 409.081 397.05 409.197C396.719 409.314 396.363 409.341 396.018 409.276C395.331 409.135 394.67 408.887 394.06 408.54C393.841 408.42 393.6 408.345 393.352 408.319C393.058 408.329 392.774 408.428 392.537 408.602C391.869 409.094 391.334 409.744 390.978 410.494C390.623 411.243 390.459 412.069 390.5 412.898C390.602 414.557 390.998 416.186 391.669 417.707C391.744 417.97 391.874 418.215 392.05 418.424C392.314 418.631 392.633 418.755 392.967 418.78C393.302 418.806 393.636 418.731 393.928 418.566C394.505 418.223 395.121 417.946 395.761 417.742C396.93 417.53 398.072 418.335 399.259 418.265C400.123 418.137 400.937 417.779 401.615 417.228C402.807 416.517 403.877 415.621 404.785 414.572C405.299 413.89 405.671 413.119 406.132 412.393C406.718 411.51 407.353 410.662 408.036 409.851L412.393 404.537C412.826 404.033 413.217 403.494 413.562 402.926C413.949 402.15 414.246 401.333 414.448 400.49C414.913 399.087 415.211 397.633 415.333 396.159C415.36 394.941 415.253 393.723 415.014 392.528C414.882 391.338 414.584 390.173 414.129 389.066C413.181 387.064 410.879 385.434 409.098 387.507Z" fill="#2F2E41"/>
<path d="M424.26 377.605C424.267 376.26 423.954 374.932 423.347 373.731C422.741 372.531 421.858 371.491 420.771 370.698C420.735 368.307 419.854 366.007 418.282 364.206C416.711 362.404 414.552 361.218 412.189 360.858C411.735 358.592 410.495 356.559 408.687 355.119C406.88 353.678 404.622 352.922 402.311 352.985C400.001 353.047 397.787 353.924 396.06 355.46C394.333 356.996 393.205 359.093 392.874 361.381C389.739 360.672 386.869 361.593 386.347 363.524C385.824 365.455 388.038 367.952 391.342 368.838C392.384 369.13 393.468 369.237 394.548 369.157C395.317 370.29 396.314 371.25 397.477 371.974C398.639 372.699 399.94 373.172 401.296 373.363C401.698 375.189 402.6 376.867 403.901 378.209C405.203 379.551 406.852 380.504 408.664 380.962C409.169 382.172 409.948 383.249 410.94 384.106C410.94 384.345 410.94 384.593 410.94 384.841C410.94 385.68 411.106 386.51 411.427 387.285C411.747 388.059 412.218 388.763 412.811 389.356C413.404 389.949 414.108 390.419 414.882 390.74C415.657 391.061 416.487 391.226 417.326 391.226C418.164 391.226 418.995 391.061 419.769 390.74C420.544 390.419 421.248 389.949 421.841 389.356C422.434 388.763 422.904 388.059 423.225 387.285C423.546 386.51 423.711 385.68 423.711 384.841C423.712 383.866 423.503 382.903 423.1 382.016C423.88 380.678 424.281 379.154 424.26 377.605Z" fill="#F86D70"/>
<path opacity="0.1" d="M388.472 363.931C388.995 362.001 391.864 361.08 394.999 361.788C395.371 359.464 396.553 357.346 398.336 355.81C400.119 354.273 402.388 353.417 404.741 353.392H405.388C404.486 353.118 403.549 352.978 402.607 352.976C400.253 353.001 397.985 353.857 396.202 355.394C394.419 356.93 393.237 359.048 392.865 361.372C389.73 360.663 386.86 361.584 386.338 363.515C385.815 365.446 388.029 367.943 391.333 368.829C391.952 369 392.587 369.11 393.228 369.156C390.066 368.209 387.95 365.906 388.472 363.931Z" fill="black"/>
<path opacity="0.1" d="M413.031 385.213C413.017 384.971 413.017 384.729 413.031 384.487C412.033 383.634 411.253 382.557 410.755 381.343C408.94 380.887 407.288 379.934 405.986 378.589C404.684 377.245 403.784 375.564 403.386 373.735C402.029 373.548 400.726 373.077 399.562 372.354C398.398 371.631 397.398 370.671 396.629 369.538C396 369.59 395.367 369.572 394.742 369.484C395.518 370.527 396.493 371.406 397.61 372.071C398.727 372.735 399.965 373.171 401.252 373.355C401.654 375.18 402.556 376.858 403.857 378.2C405.158 379.542 406.808 380.495 408.62 380.953C409.125 382.164 409.904 383.24 410.896 384.097C410.896 384.336 410.896 384.584 410.896 384.832C410.868 386.549 411.519 388.207 412.709 389.445C413.899 390.683 415.53 391.4 417.246 391.439C415.994 390.953 414.92 390.097 414.166 388.984C413.413 387.872 413.017 386.556 413.031 385.213Z" fill="black"/>
<path d="M402.17 375.06C402.681 374.672 402.675 373.806 402.157 373.124C401.639 372.443 400.806 372.204 400.295 372.592C399.785 372.979 399.791 373.846 400.309 374.528C400.827 375.209 401.66 375.448 402.17 375.06Z" fill="#FBBEBE"/>
</g>
<defs>
<linearGradient id="paint0_linear" x1="679.339" y1="504.764" x2="679.339" y2="352.33" gradientUnits="userSpaceOnUse">
<stop stop-color="#808080" stop-opacity="0.25"/>
<stop offset="0.54" stop-color="#808080" stop-opacity="0.12"/>
<stop offset="1" stop-color="#808080" stop-opacity="0.1"/>
</linearGradient>
<linearGradient id="paint1_linear" x1="55271.2" y1="59368.3" x2="55271.2" y2="50347.2" gradientUnits="userSpaceOnUse">
<stop stop-color="#808080" stop-opacity="0.25"/>
<stop offset="0.54" stop-color="#808080" stop-opacity="0.12"/>
<stop offset="1" stop-color="#808080" stop-opacity="0.1"/>
</linearGradient>
<clipPath id="clip0">
<rect width="970.649" height="509.006" fill="white"/>
</clipPath>
</defs>
</svg>
