<svg width="83" height="96" viewBox="0 0 83 96" fill="none" xmlns="http://www.w3.org/2000/svg">
<path d="M49.8499 38.5431C49.2289 37.9951 48.2819 38.0531 47.733 38.6751L26.9419 62.2291C26.3939 62.8501 26.4529 63.7981 27.0739 64.3461C27.3589 64.5981 27.7129 64.7211 28.0659 64.7211C28.4809 64.7211 28.8949 64.5501 29.1909 64.2141L49.9819 40.6601C50.5299 40.0391 50.4709 39.0921 49.8499 38.5431Z" fill="#311B92"/>
<path d="M30.893 48.7249C32.579 48.0049 33.885 46.6699 34.571 44.9679C35.257 43.2639 35.238 41.3959 34.52 39.7069C33.801 38.0169 32.466 36.7079 30.764 36.0229C27.253 34.6059 23.239 36.3149 21.814 39.8339C21.128 41.5379 21.149 43.4069 21.874 45.0979C22.597 46.7869 23.935 48.0939 25.637 48.7789C26.466 49.1129 27.333 49.2789 28.2 49.2789C29.113 49.2799 30.027 49.0949 30.893 48.7249ZM24.631 43.9179C24.223 42.9649 24.211 41.9129 24.596 40.9579C25.208 39.4459 26.666 38.5249 28.201 38.5249C28.681 38.5249 29.17 38.6149 29.642 38.8059C30.602 39.1919 31.353 39.9289 31.759 40.8809C32.165 41.8329 32.174 42.8859 31.787 43.8459C31.4 44.8069 30.664 45.5589 29.714 45.9649C28.763 46.3699 27.714 46.3809 26.757 45.9959C25.795 45.6099 25.04 44.8709 24.631 43.9179Z" fill="#311B92"/>
<path d="M81.5699 41.795C81.5589 41.397 81.3889 41.02 81.0989 40.746C80.8099 40.473 80.4329 40.326 80.0239 40.338L71.4019 40.601L73.3479 34.476C73.4679 34.097 73.4329 33.685 73.2499 33.332C73.0669 32.978 72.7509 32.712 72.3719 32.592L58.1299 28.067L55.7029 1.913C55.6309 1.142 54.8979 0.552002 54.1229 0.552002C53.4969 0.552002 52.9369 0.941002 52.7179 1.527L44.4239 23.713L19.6919 15.854C18.9059 15.605 18.0599 16.04 17.8079 16.83L1.06891 69.508C0.817908 70.298 1.25491 71.141 2.04491 71.392L28.9209 79.933L29.3189 93.993C29.3419 94.806 30.0089 95.451 30.8179 95.451C30.8329 95.451 30.8469 95.451 30.8609 95.451L81.5429 94.022C81.9399 94.011 82.3169 93.842 82.5909 93.553C82.8639 93.264 83.0109 92.878 82.9999 92.48L81.5699 41.795ZM53.3049 8.526L55.0259 27.08L47.2869 24.621L53.3049 8.526ZM20.2139 19.167L70.0349 34.997L54.2049 84.818L4.38291 68.986L20.2139 19.167ZM32.2759 92.406L31.9499 80.893L54.7259 88.131C54.8739 88.178 55.0269 88.201 55.1799 88.201C55.4179 88.201 55.6549 88.144 55.8689 88.033C56.2229 87.85 56.4889 87.534 56.6089 87.155L70.4379 43.632L78.6119 43.382L79.9579 91.062L32.2759 92.406Z" fill="#311B92"/>
<path d="M48.8638 56.5331C47.1608 55.8461 45.2908 55.8631 43.5988 56.5841C41.9088 57.3041 40.5998 58.6381 39.9138 60.3421C39.2278 62.0441 39.2478 63.9121 39.9688 65.6021C40.6898 67.2921 42.0268 68.6001 43.7298 69.2831C44.5598 69.6181 45.4298 69.7851 46.2978 69.7851C47.2108 69.7851 48.1228 69.6001 48.9868 69.2321C50.6768 68.5131 51.9848 67.1781 52.6708 65.4731C53.3568 63.7691 53.3378 61.9011 52.6198 60.2141C51.9018 58.5251 50.5668 57.2181 48.8638 56.5331ZM49.8888 64.3531C49.5028 65.3131 48.7658 66.0651 47.8138 66.4711C46.8628 66.8771 45.8118 66.8861 44.8498 66.4991C43.8888 66.1141 43.1358 65.3771 42.7288 64.4241C42.3228 63.4721 42.3118 62.4201 42.6978 61.4621C43.0838 60.5021 43.8218 59.7491 44.7748 59.3431C45.2628 59.1351 45.7768 59.0311 46.2918 59.0311C46.7828 59.0311 47.2738 59.1261 47.7438 59.3151C48.7038 59.7011 49.4558 60.4381 49.8608 61.3881C50.2648 62.3391 50.2748 63.3921 49.8888 64.3531Z" fill="#311B92"/>
</svg>
