<svg width="91" height="82" viewBox="0 0 91 82" fill="none" xmlns="http://www.w3.org/2000/svg">
<path d="M23.8309 33.6459C23.8309 36.4179 26.0859 38.6739 28.8589 38.6739C31.6319 38.6739 33.8869 36.4179 33.8869 33.6459C33.8869 30.8739 31.6309 28.6179 28.8589 28.6179C26.0869 28.6179 23.8309 30.8739 23.8309 33.6459ZM30.9809 33.6459C30.9809 34.8159 30.0289 35.7679 28.8589 35.7679C27.6889 35.7679 26.7369 34.8159 26.7369 33.6459C26.7369 32.4759 27.6889 31.5239 28.8589 31.5239C30.0289 31.5239 30.9809 32.4759 30.9809 33.6459Z" fill="#311B92"/>
<path d="M73.4269 18.0489C72.7219 17.6669 71.84 17.9239 71.4549 18.6279C71.0699 19.3319 71.3299 20.2149 72.0339 20.5999C82.0179 26.0489 87.9779 34.8419 87.9779 44.1209C87.9779 52.6709 84.561 58.9839 76.8989 64.5909C76.615 64.7999 76.4159 65.1049 76.3379 65.4479L73.4739 78.3499H68.1129L66.4059 71.7749C66.3019 71.3779 66.0359 71.0419 65.6719 70.8519C65.3079 70.6619 64.878 70.6359 64.4939 70.7779C59.7379 72.5449 56.1339 73.1119 49.659 73.1119C43.512 73.1119 39.118 72.6799 33.5159 70.4039C33.1229 70.2429 32.68 70.2629 32.304 70.4579C31.927 70.6519 31.6539 71.0019 31.5559 71.4139L29.9079 78.3509H24.5939L21.7719 64.4319C21.6959 64.0579 21.4759 63.7289 21.1599 63.5159C9.06195 55.3659 2.92895 48.3339 2.92895 42.6139V37.1269C2.92895 34.7719 4.59595 32.8559 6.64395 32.8559H13.0969L13.2229 32.8549C13.2799 32.8539 13.332 32.8509 13.3879 32.8559C13.943 32.9069 14.485 32.6379 14.773 32.1559C16.8629 28.6659 19.8919 25.5209 23.7749 22.8089C24.1639 22.5369 24.3959 22.0919 24.3959 21.6179V9.53691C29.5789 10.0779 33.2309 13.4579 34.6339 16.8109C34.9429 17.5509 35.7949 17.8999 36.535 17.5909C37.275 17.2809 37.625 16.4299 37.3149 15.6899C35.4139 11.1439 30.2329 6.55591 22.9429 6.55591C22.1399 6.55591 21.4899 7.20591 21.4899 8.00891V20.8689C17.8219 23.5319 14.8769 26.5809 12.7209 29.9499H6.64395C2.99295 29.9499 0.0229492 33.1699 0.0229492 37.1269V42.6139C0.0229492 52.4549 13.7819 62.0389 19.0409 65.5919L21.9809 80.0919C22.1179 80.7689 22.7129 81.2559 23.4049 81.2559H31.0559C31.7289 81.2559 32.314 80.7939 32.47 80.1389L33.999 73.7019C39.31 75.6309 43.721 76.0169 49.659 76.0169C55.1349 76.0169 59.0239 75.6949 63.9909 74.0369L65.5829 80.1679C65.7489 80.8089 66.3269 81.2559 66.9889 81.2559H74.6399C75.3209 81.2559 75.9109 80.7819 76.0589 80.1179L79.0589 66.6079C87.1229 60.5509 90.8849 53.3919 90.8849 44.1209C90.8849 33.7609 84.3579 24.0149 73.4269 18.0489Z" fill="#311B92"/>
<path d="M44.6699 22.172C45.1099 22.196 45.5199 22.019 45.8099 21.699C47.7819 19.536 50.9439 18.245 54.2669 18.245C57.5629 18.245 60.6229 19.532 62.6629 21.776C62.9379 22.08 63.3299 22.252 63.7379 22.252C63.7579 22.252 63.7769 22.252 63.7969 22.251C64.2269 22.234 64.6269 22.027 64.8899 21.686C66.7079 19.326 67.6679 16.5 67.6669 13.515C67.6669 6.12599 61.6549 0.11499 54.2669 0.11499C46.8789 0.11499 40.8669 6.12599 40.8669 13.515C40.8669 16.46 41.8049 19.256 43.5789 21.598C43.8389 21.941 44.2389 22.152 44.6699 22.172ZM54.2669 3.01999C60.0529 3.01999 64.7609 7.72799 64.7609 13.515C64.7619 15.303 64.3229 17.017 63.4799 18.55C60.9889 16.492 57.7239 15.339 54.2679 15.339C50.7629 15.339 47.4839 16.463 45.0129 18.469C44.1989 16.955 43.7739 15.269 43.7739 13.514C43.7729 7.72799 48.4799 3.01999 54.2669 3.01999Z" fill="#311B92"/>
</svg>
