<svg width="535" height="502" viewBox="0 0 535 502" fill="none" xmlns="http://www.w3.org/2000/svg">
<g clip-path="url(#clip0)">
<g opacity="0.5">
<path opacity="0.5" d="M68.969 23.5964H66.8931V35.3604H68.969V23.5964Z" fill="#47E6B1"/>
<path opacity="0.5" d="M73.813 30.5164V28.4404H62.049V30.5164H73.813Z" fill="#47E6B1"/>
</g>
<g opacity="0.5">
<path opacity="0.5" d="M508.081 479.74H506.005V491.504H508.081V479.74Z" fill="#47E6B1"/>
<path opacity="0.5" d="M512.925 486.66V484.584H501.161V486.66H512.925Z" fill="#47E6B1"/>
</g>
<g opacity="0.5">
<path opacity="0.5" d="M508.904 134.247H506.828V146.011H508.904V134.247Z" fill="#47E6B1"/>
<path opacity="0.5" d="M513.748 141.167V139.091H501.984V141.167H513.748Z" fill="#47E6B1"/>
</g>
<g opacity="0.5">
<path opacity="0.5" d="M530.1 28.2659H528.024V40.0298H530.1V28.2659Z" fill="#47E6B1"/>
<path opacity="0.5" d="M534.944 35.1859V33.1099H523.18V35.1859H534.944Z" fill="#47E6B1"/>
</g>
<g opacity="0.5">
<path opacity="0.5" d="M168.579 22.6115H166.503V34.3754H168.579V22.6115Z" fill="#47E6B1"/>
<path opacity="0.5" d="M173.417 29.5314V27.4554H161.653V29.5314H173.417Z" fill="#47E6B1"/>
</g>
<path opacity="0.5" d="M38.1596 198.372C37.5878 198.123 37.1277 197.672 36.8668 197.105C36.6059 196.538 36.5623 195.896 36.7444 195.299C36.7738 195.208 36.7926 195.114 36.8005 195.018C36.8424 194.735 36.7858 194.447 36.6401 194.201C36.4944 193.954 36.2685 193.766 36.0004 193.667C35.7322 193.567 35.438 193.563 35.1671 193.655C34.8962 193.747 34.6651 193.929 34.5125 194.171C34.4553 194.248 34.4072 194.331 34.3692 194.42C34.1196 194.992 33.6685 195.452 33.1019 195.713C32.5352 195.974 31.8924 196.017 31.2957 195.835C31.2046 195.806 31.1105 195.787 31.0152 195.779C30.7323 195.737 30.4435 195.794 30.1974 195.939C29.9513 196.085 29.7628 196.311 29.6634 196.579C29.564 196.847 29.5598 197.141 29.6516 197.412C29.7433 197.683 29.9254 197.914 30.1673 198.067C30.2446 198.124 30.3283 198.172 30.4167 198.21C30.9884 198.46 31.4485 198.911 31.7094 199.478C31.9704 200.044 32.0139 200.687 31.8318 201.284C31.8024 201.375 31.7836 201.469 31.7757 201.564C31.7338 201.847 31.7905 202.136 31.9362 202.382C32.0818 202.628 32.3077 202.817 32.5759 202.916C32.844 203.015 33.1382 203.02 33.4091 202.928C33.68 202.836 33.9111 202.654 34.0637 202.412C34.1209 202.335 34.1691 202.251 34.2071 202.163C34.4567 201.591 34.9077 201.131 35.4744 200.87C36.041 200.609 36.6838 200.566 37.2805 200.748C37.3716 200.777 37.4657 200.796 37.5611 200.804C37.844 200.846 38.1327 200.789 38.3788 200.643C38.6249 200.498 38.8135 200.272 38.9129 200.004C39.0122 199.735 39.0164 199.441 38.9247 199.17C38.8329 198.899 38.6508 198.668 38.4089 198.516C38.3316 198.458 38.2479 198.41 38.1596 198.372Z" fill="#4D8AF0"/>
<path opacity="0.5" d="M76.4875 434.237C75.9157 433.987 75.4556 433.536 75.1947 432.97C74.9338 432.403 74.8902 431.76 75.0723 431.164C75.1017 431.073 75.1205 430.978 75.1284 430.883C75.1703 430.6 75.1136 430.311 74.968 430.065C74.8223 429.819 74.5964 429.631 74.3283 429.531C74.0601 429.432 73.7659 429.428 73.495 429.52C73.2241 429.611 72.993 429.793 72.8404 430.035C72.7832 430.113 72.7351 430.196 72.697 430.285C72.4474 430.856 71.9964 431.316 71.4298 431.577C70.8631 431.838 70.2203 431.882 69.6236 431.7C69.5325 431.67 69.4384 431.652 69.343 431.644C69.0601 431.602 68.7714 431.658 68.5253 431.804C68.2792 431.95 68.0906 432.176 67.9913 432.444C67.8919 432.712 67.8877 433.006 67.9795 433.277C68.0712 433.548 68.2533 433.779 68.4952 433.932C68.5725 433.989 68.6562 434.037 68.7446 434.075C69.3163 434.325 69.7764 434.776 70.0373 435.342C70.2982 435.909 70.3418 436.552 70.1597 437.148C70.1303 437.24 70.1115 437.334 70.1036 437.429C70.0617 437.712 70.1184 438.001 70.2641 438.247C70.4097 438.493 70.6356 438.681 70.9038 438.781C71.1719 438.88 71.4661 438.884 71.737 438.793C72.0079 438.701 72.239 438.519 72.3916 438.277C72.4488 438.2 72.4969 438.116 72.535 438.027C72.7846 437.456 73.2356 436.996 73.8022 436.735C74.3689 436.474 75.0117 436.43 75.6084 436.612C75.6995 436.642 75.7936 436.661 75.889 436.668C76.1719 436.71 76.4606 436.654 76.7067 436.508C76.9528 436.362 77.1414 436.136 77.2407 435.868C77.3401 435.6 77.3443 435.306 77.2525 435.035C77.1608 434.764 76.9787 434.533 76.7368 434.38C76.6595 434.323 76.5758 434.275 76.4875 434.237Z" fill="#4D8AF0"/>
<path opacity="0.5" d="M424.979 121.904C424.407 121.654 423.947 121.203 423.686 120.636C423.425 120.07 423.382 119.427 423.564 118.83C423.593 118.739 423.612 118.645 423.62 118.55C423.662 118.267 423.605 117.978 423.46 117.732C423.314 117.486 423.088 117.297 422.82 117.198C422.552 117.098 422.258 117.094 421.987 117.186C421.716 117.278 421.485 117.46 421.332 117.702C421.275 117.779 421.227 117.863 421.189 117.951C420.939 118.523 420.488 118.983 419.921 119.244C419.355 119.505 418.712 119.548 418.115 119.366C418.024 119.337 417.93 119.318 417.835 119.31C417.552 119.268 417.263 119.325 417.017 119.471C416.771 119.616 416.582 119.842 416.483 120.11C416.384 120.378 416.379 120.673 416.471 120.944C416.563 121.214 416.745 121.446 416.987 121.598C417.064 121.655 417.148 121.703 417.236 121.741C417.808 121.991 418.268 122.442 418.529 123.009C418.79 123.575 418.834 124.218 418.651 124.815C418.622 124.906 418.603 125 418.595 125.095C418.553 125.378 418.61 125.667 418.756 125.913C418.901 126.159 419.127 126.348 419.395 126.447C419.664 126.547 419.958 126.551 420.229 126.459C420.5 126.367 420.731 126.185 420.883 125.943C420.941 125.866 420.989 125.782 421.027 125.694C421.276 125.122 421.727 124.662 422.294 124.401C422.861 124.14 423.503 124.097 424.1 124.279C424.191 124.308 424.285 124.327 424.381 124.335C424.664 124.377 424.952 124.32 425.198 124.174C425.445 124.029 425.633 123.803 425.732 123.535C425.832 123.267 425.836 122.972 425.744 122.702C425.653 122.431 425.47 122.2 425.229 122.047C425.151 121.99 425.068 121.942 424.979 121.904Z" fill="#4D8AF0"/>
<path opacity="0.5" d="M420.335 178.254C419.763 178.005 419.303 177.554 419.042 176.987C418.781 176.42 418.737 175.778 418.919 175.181C418.949 175.09 418.968 174.996 418.976 174.9C419.017 174.618 418.961 174.329 418.815 174.083C418.669 173.837 418.444 173.648 418.175 173.549C417.907 173.449 417.613 173.445 417.342 173.537C417.071 173.629 416.84 173.811 416.688 174.053C416.63 174.13 416.582 174.214 416.544 174.302C416.295 174.874 415.844 175.334 415.277 175.595C414.71 175.856 414.067 175.899 413.471 175.717C413.38 175.688 413.286 175.669 413.19 175.661C412.907 175.619 412.619 175.676 412.372 175.821C412.126 175.967 411.938 176.193 411.838 176.461C411.739 176.729 411.735 177.024 411.827 177.294C411.918 177.565 412.1 177.796 412.342 177.949C412.42 178.006 412.503 178.054 412.592 178.092C413.163 178.342 413.624 178.793 413.884 179.36C414.145 179.926 414.189 180.569 414.007 181.166C413.978 181.257 413.959 181.351 413.951 181.446C413.909 181.729 413.966 182.018 414.111 182.264C414.257 182.51 414.483 182.699 414.751 182.798C415.019 182.897 415.313 182.902 415.584 182.81C415.855 182.718 416.086 182.536 416.239 182.294C416.296 182.217 416.344 182.133 416.382 182.045C416.632 181.473 417.083 181.013 417.649 180.752C418.216 180.491 418.859 180.448 419.456 180.63C419.547 180.659 419.641 180.678 419.736 180.686C420.019 180.728 420.308 180.671 420.554 180.525C420.8 180.38 420.989 180.154 421.088 179.886C421.187 179.617 421.191 179.323 421.1 179.052C421.008 178.781 420.826 178.55 420.584 178.398C420.507 178.341 420.423 178.292 420.335 178.254Z" fill="#4D8AF0"/>
<path opacity="0.5" d="M420.665 4.71304C420.094 4.46344 419.633 4.01242 419.373 3.44575C419.112 2.87908 419.068 2.23628 419.25 1.63958C419.28 1.54853 419.298 1.4544 419.306 1.35904C419.348 1.07613 419.291 0.787414 419.146 0.541301C419 0.295188 418.774 0.106638 418.506 0.00725939C418.238 -0.0921188 417.944 -0.0962822 417.673 -0.00453389C417.402 0.0872144 417.171 0.269297 417.018 0.511189C416.961 0.588501 416.913 0.672182 416.875 0.760558C416.627 1.33207 416.177 1.79253 415.612 2.05454C415.046 2.31655 414.404 2.36189 413.808 2.18195C413.717 2.15255 413.622 2.13372 413.527 2.12585C413.244 2.08395 412.956 2.14059 412.709 2.28627C412.463 2.43195 412.275 2.65781 412.175 2.92599C412.076 3.19416 412.072 3.48835 412.164 3.75923C412.255 4.03011 412.437 4.26121 412.679 4.4138C412.757 4.47105 412.84 4.51917 412.929 4.55719C413.5 4.80678 413.96 5.2578 414.221 5.82448C414.482 6.39115 414.526 7.03395 414.344 7.63064C414.314 7.72169 414.296 7.81583 414.288 7.91118C414.246 8.19409 414.302 8.48281 414.448 8.72892C414.594 8.97504 414.82 9.16359 415.088 9.26296C415.356 9.36234 415.65 9.36651 415.921 9.27476C416.192 9.18301 416.423 9.00093 416.576 8.75904C416.633 8.68172 416.681 8.59804 416.719 8.50967C416.961 7.93654 417.406 7.47218 417.967 7.2045C418.529 6.93681 419.17 6.88437 419.768 7.0571C419.859 7.0865 419.953 7.10533 420.048 7.11321C420.331 7.1551 420.62 7.09846 420.866 6.95278C421.112 6.8071 421.3 6.58124 421.4 6.31307C421.499 6.04489 421.503 5.75071 421.412 5.47983C421.32 5.20895 421.138 4.97784 420.896 4.82525C420.823 4.78002 420.746 4.74242 420.665 4.71304Z" fill="#4D8AF0"/>
<path opacity="0.5" d="M525.499 289.641C524.928 289.391 524.468 288.94 524.207 288.374C523.946 287.807 523.902 287.164 524.084 286.567C524.114 286.476 524.132 286.382 524.14 286.287C524.182 286.004 524.126 285.715 523.98 285.469C523.834 285.223 523.608 285.034 523.34 284.935C523.072 284.836 522.778 284.832 522.507 284.923C522.236 285.015 522.005 285.197 521.852 285.439C521.795 285.516 521.747 285.6 521.709 285.688C521.459 286.26 521.008 286.72 520.442 286.981C519.875 287.242 519.232 287.286 518.636 287.104C518.545 287.074 518.45 287.055 518.355 287.047C518.072 287.006 517.783 287.062 517.537 287.208C517.291 287.354 517.103 287.579 517.003 287.848C516.904 288.116 516.9 288.41 516.991 288.681C517.083 288.952 517.265 289.183 517.507 289.335C517.584 289.393 517.668 289.441 517.757 289.479C518.334 289.73 518.798 290.187 519.058 290.76C519.318 291.334 519.357 291.983 519.165 292.583C519.136 292.675 519.117 292.769 519.109 292.864C519.067 293.147 519.124 293.436 519.27 293.682C519.415 293.928 519.641 294.116 519.91 294.216C520.178 294.315 520.472 294.319 520.743 294.228C521.014 294.136 521.245 293.954 521.397 293.712C521.455 293.635 521.503 293.551 521.541 293.463C521.79 292.891 522.241 292.431 522.808 292.17C523.375 291.909 524.017 291.865 524.614 292.047C524.705 292.077 524.799 292.096 524.895 292.103C525.178 292.145 525.466 292.089 525.712 291.943C525.959 291.797 526.147 291.571 526.247 291.303C526.346 291.035 526.35 290.741 526.258 290.47C526.167 290.199 525.984 289.968 525.743 289.815C525.669 289.748 525.587 289.689 525.499 289.641Z" fill="#4D8AF0"/>
<path opacity="0.5" d="M38.5087 107.715C40.8017 107.715 42.6606 105.856 42.6606 103.563C42.6606 101.27 40.8017 99.4106 38.5087 99.4106C36.2156 99.4106 34.3567 101.27 34.3567 103.563C34.3567 105.856 36.2156 107.715 38.5087 107.715Z" fill="#F55F44"/>
<path opacity="0.5" d="M8.06702 405.903C10.3601 405.903 12.219 404.044 12.219 401.751C12.219 399.458 10.3601 397.599 8.06702 397.599C5.77394 397.599 3.91504 399.458 3.91504 401.751C3.91504 404.044 5.77394 405.903 8.06702 405.903Z" fill="#F55F44"/>
<path opacity="0.5" d="M274.093 32.6298C276.386 32.6298 278.245 30.7709 278.245 28.4778C278.245 26.1847 276.386 24.3258 274.093 24.3258C271.8 24.3258 269.941 26.1847 269.941 28.4778C269.941 30.7709 271.8 32.6298 274.093 32.6298Z" fill="#F55F44"/>
<path opacity="0.5" d="M315.862 111.804C318.155 111.804 320.014 109.945 320.014 107.652C320.014 105.359 318.155 103.5 315.862 103.5C313.569 103.5 311.71 105.359 311.71 107.652C311.71 109.945 313.569 111.804 315.862 111.804Z" fill="#F55F44"/>
<path opacity="0.5" d="M4.15198 302.571C6.44505 302.571 8.30396 300.712 8.30396 298.419C8.30396 296.126 6.44505 294.267 4.15198 294.267C1.8589 294.267 0 296.126 0 298.419C0 300.712 1.8589 302.571 4.15198 302.571Z" fill="#F55F44"/>
<path opacity="0.5" d="M166.765 100.994C169.058 100.994 170.917 99.1352 170.917 96.8422C170.917 94.5491 169.058 92.6902 166.765 92.6902C164.472 92.6902 162.613 94.5491 162.613 96.8422C162.613 99.1352 164.472 100.994 166.765 100.994Z" fill="#47E6B1"/>
<path opacity="0.5" d="M452.354 376.801C454.647 376.801 456.506 374.942 456.506 372.649C456.506 370.356 454.647 368.497 452.354 368.497C450.061 368.497 448.202 370.356 448.202 372.649C448.202 374.942 450.061 376.801 452.354 376.801Z" fill="#F55F44"/>
<g opacity="0.5">
<path opacity="0.5" d="M339.477 133.456C331.435 125.389 319.708 122.178 306.436 124.416C294.036 126.511 281.63 133.225 271.524 143.324C268.592 146.274 266.128 149.655 264.218 153.349C262.357 149.532 259.913 146.028 256.974 142.963C246.999 132.695 234.736 125.769 222.374 123.456C209.164 120.962 197.387 123.992 189.208 131.922C181.029 139.852 177.643 151.529 179.701 164.782C181.621 177.251 188.129 189.719 198.104 199.999C219.039 221.595 260.814 213.16 262.584 212.786L263.108 212.68L264.716 213.048C266.481 213.447 308.1 222.598 329.396 201.371C339.527 191.278 346.279 178.89 348.417 166.497C350.692 153.262 347.519 141.523 339.477 133.456ZM255.509 200.317C245.415 201.676 220.254 203.522 207.761 190.636C199.731 182.35 194.476 172.438 192.98 162.738C191.608 153.885 193.603 146.36 198.553 141.541C200.495 139.676 202.817 138.253 205.361 137.371C209.525 135.893 214.481 135.619 219.899 136.635C229.549 138.437 239.287 143.998 247.329 152.283C259.823 165.2 257.179 190.293 255.509 200.317ZM335.169 164.203C333.505 173.878 328.081 183.691 319.908 191.839C307.19 204.513 282.066 202.231 272.004 200.698C270.502 190.623 268.301 165.493 281.013 152.819C289.186 144.671 299.017 139.285 308.699 137.645C314.135 136.729 319.085 137.084 323.224 138.63C325.752 139.557 328.049 141.02 329.957 142.919C334.839 147.838 336.69 155.394 335.169 164.215V164.203Z" fill="url(#paint0_linear)"/>
</g>
<path d="M266.624 210.074L262.647 210.915C260.958 211.271 220.984 219.338 200.928 198.678C191.403 188.853 185.15 176.889 183.311 165.013C181.347 152.308 184.557 141.13 192.4 133.543C200.243 125.956 211.502 123.082 224.138 125.438C235.983 127.651 247.729 134.278 257.248 144.103C277.272 164.77 267.959 204.469 267.547 206.146L266.624 210.074ZM207.892 138.761C205.458 139.605 203.236 140.966 201.377 142.751C196.627 147.351 194.732 154.552 196.041 163.024C197.475 172.307 202.499 181.789 210.186 189.719C222.137 202.05 246.214 200.317 255.87 198.983C257.473 189.376 259.991 165.362 248.04 153.031C240.353 145.101 231.033 139.783 221.8 138.069C216.626 137.084 211.882 137.352 207.892 138.761Z" fill="#6C63FF"/>
<path d="M260.727 210.248L259.823 206.283C259.443 204.594 250.814 164.739 271.194 144.428C280.882 134.765 292.758 128.343 304.622 126.348C317.296 124.204 328.517 127.277 336.217 134.995C343.916 142.713 346.946 153.947 344.764 166.615C342.719 178.46 336.254 190.305 326.566 199.987C306.199 220.267 266.375 211.539 264.685 211.152L260.727 210.248ZM320.681 139.958C316.716 138.474 311.953 138.131 306.785 139.01C297.521 140.575 288.082 145.731 280.29 153.53C268.127 165.655 270.228 189.688 271.668 199.345C281.3 200.81 305.332 202.998 317.508 190.866C325.332 183.067 330.519 173.679 332.115 164.421C333.573 155.973 331.803 148.742 327.127 144.06C325.298 142.243 323.097 140.843 320.675 139.958H320.681Z" fill="#6C63FF"/>
<g opacity="0.5">
<path opacity="0.5" d="M455.639 199.625H68.0837V277.172H88.2202V501.61H435.503V277.172H455.639V199.625Z" fill="url(#paint1_linear)"/>
</g>
<path d="M431.107 223.072H92.6152V497.795H431.107V223.072Z" fill="#F5F5F5"/>
<path d="M293.749 272.129H229.973V497.795H293.749V272.129Z" fill="#6C63FF"/>
<path opacity="0.1" d="M431.107 208.353H92.6152V277.035H431.107V208.353Z" fill="black"/>
<path d="M450.726 203.447H72.99V272.129H450.726V203.447Z" fill="#F5F5F5"/>
<path d="M293.749 203.447H229.973V272.129H293.749V203.447Z" fill="#6C63FF"/>
<path d="M487.944 209.619C486.747 206.159 473.656 215.903 473.656 215.903L470.638 215.722L464.834 210.348L468.887 206.296L434.854 177.126C433.946 176.347 432.885 175.767 431.74 175.423C430.594 175.078 429.389 174.977 428.202 175.125L399.918 178.66C399.799 177.039 398.795 175.112 397.386 173.149C394.488 168.392 388.378 163.012 386.115 161.098L382.668 137.838L385.598 133.443C385.056 133.295 384.523 133.116 384.002 132.907L384.625 131.978L384.394 131.916L384.687 131.579H384.65L391.988 123.113C392.529 122.485 392.806 121.672 392.761 120.845C392.716 120.017 392.351 119.239 391.745 118.674L375.405 106.281C375.901 105.098 376.139 103.822 376.103 102.54C376.228 100.046 375.13 97.5527 371.427 95.7199C369.137 94.6291 366.738 93.7828 364.27 93.195C360.203 92.1477 355.93 92.2101 351.896 93.3758L351.684 93.1264C346.653 87.3785 340.063 95.6201 339.807 95.963L314.035 124.64C313.332 125.751 313.072 127.086 313.308 128.38C313.544 129.673 314.257 130.831 315.307 131.623L328.947 141.853L328.904 141.94L329.677 142.52C329.091 143.667 328.312 144.434 327.27 144.546L329.359 145.593C329.03 145.823 328.648 145.967 328.249 146.011L337.812 150.793C337.812 155.78 338.324 178.516 346.409 189.688C347.239 191.055 348.224 192.32 349.346 193.46C349.346 193.46 350.031 193.086 351.291 192.481L352.737 195.367C354.323 198.542 356.868 201.136 360.011 202.783C363.154 204.431 366.736 205.046 370.249 204.544L415.135 198.129L414.661 199.557L414.917 199.519L400.366 243.159L402.773 243.963L402.729 244.05L403.066 244.194L400.042 249.91L390.516 257.236C390.516 257.236 418.358 271.194 421.288 268.993C424.218 266.793 411.027 257.267 411.027 257.267L410.291 254.337L413.496 247.572L416.183 248.47L437.759 205.305L438.495 203.84L453.083 222.1L457.197 217.985L457.64 218.434L457.677 218.396L463.382 224.169L467.515 235.453C467.515 235.453 489.16 213.072 487.944 209.619ZM374.682 125.7L374.395 125.37C372.1 128.083 369.298 130.323 366.147 131.965V129.565L366.309 129.422V128.381C368.479 126.384 370.049 123.821 370.841 120.98C371.633 118.14 371.615 115.134 370.791 112.303L380.261 119.591L374.682 125.7ZM342.507 98.6437L342.276 98.413L342.507 98.6375V98.6437ZM334.932 113.905C334.87 114.661 334.845 115.426 334.857 116.199C334.841 117.318 334.904 118.437 335.044 119.547C335.531 123.425 336.915 126.592 339.782 128.1C342.276 129.409 343.916 129.347 344.963 128.443L345.075 128.543C345.162 130.061 345.557 131.546 346.235 132.907C340.893 131.792 335.791 129.738 331.167 126.841C331.167 126.841 331.167 127.034 331.204 127.383L327.283 123.462L334.932 113.905Z" fill="url(#paint2_linear)"/>
<path d="M406.464 235.84L400.055 247.94L410.017 252.211L416.426 238.689L406.464 235.84Z" fill="#FDA57D"/>
<path d="M410.017 252.211L410.728 255.06C410.728 255.06 423.539 264.311 420.702 266.45C417.866 268.588 390.778 255.06 390.778 255.06L400.03 247.94L410.017 252.211Z" fill="#333333"/>
<path opacity="0.1" d="M415.74 239.942L405.666 236.582L402.667 242.242L412.629 246.519L415.74 239.942Z" fill="black"/>
<path d="M451.979 213.172L461.599 222.91L468.662 214.687L457.684 204.519L451.979 213.172Z" fill="#FDA57D"/>
<path opacity="0.1" d="M458.077 204.993L452.372 213.646L456.019 217.343L463.419 209.943L458.077 204.993Z" fill="black"/>
<path d="M468.668 214.687L471.599 214.862C471.599 214.862 484.266 205.417 485.451 208.771C486.635 212.125 465.626 233.876 465.626 233.876L461.611 222.916L468.668 214.687Z" fill="#333333"/>
<path d="M377.437 141.853L392.225 124.746C392.748 124.136 393.016 123.348 392.972 122.545C392.928 121.742 392.575 120.987 391.988 120.438L359.813 96.0378L355.898 102.135L380.835 121.33L370.237 132.938L377.437 141.853Z" fill="#FDA57D"/>
<path opacity="0.1" d="M375.742 126.947L370.567 132.62L377.755 141.541L385.168 132.988C381.55 131.837 378.298 129.754 375.742 126.947Z" fill="black"/>
<path d="M334.496 145.569L317.757 132.988C316.737 132.221 316.043 131.098 315.812 129.843C315.581 128.588 315.83 127.292 316.51 126.211L341.559 98.3384L346.684 103.463L329.384 125.058L339.621 135.326L334.496 145.569Z" fill="#FDA57D"/>
<path opacity="0.1" d="M330.968 143.044L333.704 145.101L338.829 134.858L332.395 128.425C332.532 130.607 332.919 139.073 330.968 143.044Z" fill="black"/>
<path d="M415.74 195.286L400.373 241.382L415.74 246.506L441.35 195.286L420.865 190.168L415.74 195.286Z" fill="#4D8AF0"/>
<path opacity="0.1" d="M415.029 196.708L414.263 199.014L430.397 196.708L436.7 204.588L440.64 196.708L420.148 191.589L415.029 196.708Z" fill="black"/>
<path d="M341.534 98.3943C341.534 98.3943 348.099 89.9345 353.08 95.6263C358.061 101.318 345.231 102.029 345.231 102.029L341.534 98.3943Z" fill="#FDA57D"/>
<path d="M349.153 185.044L354.103 194.95C355.644 198.031 358.116 200.55 361.168 202.149C364.221 203.747 367.698 204.346 371.109 203.858L431.101 195.286L451.593 220.89L466.96 205.523L433.919 177.189C433.037 176.432 432.008 175.868 430.895 175.534C429.783 175.199 428.613 175.1 427.46 175.243L349.153 185.044Z" fill="#4D8AF0"/>
<path opacity="0.1" d="M334.097 129.79C334.097 129.79 335.444 146.423 330.325 146.996L340.568 152.121C340.568 152.121 340.001 182.282 350.811 193.098C350.811 193.098 370.76 182.288 391.788 182.855C412.816 183.423 386.664 162.37 386.664 162.37L383.204 139.054L386.053 134.784C382.191 133.629 378.733 131.408 376.078 128.375C373.229 131.934 366.727 136.76 361.041 136.76H358.591C350.156 136.76 341.185 135.058 334.078 130.526L334.097 129.79Z" fill="black"/>
<path d="M333.149 128.368C333.149 128.368 334.496 145.001 329.378 145.575L339.62 150.693C339.62 150.693 339.053 180.854 349.863 191.67C349.863 191.67 369.813 180.86 390.841 181.428C411.869 181.995 385.716 160.942 385.716 160.942L382.256 137.626L385.105 133.356C381.243 132.201 377.786 129.98 375.131 126.947C372.281 130.507 365.779 135.332 360.094 135.332H357.644C348.984 135.334 340.496 132.923 333.131 128.368H333.149Z" fill="#3AD29F"/>
<path d="M346.64 123.68V129.397C346.641 132.294 347.791 135.072 349.839 137.121L362.001 149.284L366.054 141.18C366.759 139.769 367.126 138.212 367.126 136.635V123.668L346.64 123.68Z" fill="#FDA57D"/>
<path opacity="0.1" d="M346.796 130.264C346.796 130.476 346.796 130.681 346.796 130.887C349.612 133.402 353.254 134.792 357.03 134.792C360.805 134.792 364.448 133.402 367.263 130.887V124.547H346.796V130.264Z" fill="black"/>
<path d="M356.883 133.923C365.37 133.923 372.25 127.043 372.25 118.556C372.25 110.069 365.37 103.188 356.883 103.188C348.396 103.188 341.516 110.069 341.516 118.556C341.516 127.043 348.396 133.923 356.883 133.923Z" fill="#FDA57D"/>
<path opacity="0.1" d="M346.64 114.223H372.25C372.25 114.223 382.493 103.98 372.25 98.8556C370.026 97.7948 367.696 96.9715 365.299 96.3993C349.714 92.4468 334.914 105.333 336.915 121.28C337.389 125.021 338.742 128.138 341.516 129.584C352.332 135.282 346.64 114.223 346.64 114.223Z" fill="black"/>
<path d="M346.64 113.512H372.25C372.25 113.512 382.493 103.27 372.25 98.1451C370.026 97.0844 367.696 96.2611 365.299 95.6889C349.714 91.7364 334.914 104.622 336.915 120.57C337.389 124.31 338.742 127.427 341.516 128.874C352.332 134.572 346.64 113.512 346.64 113.512Z" fill="#333333"/>
<path d="M347.388 121.249C348.173 121.249 348.81 120.133 348.81 118.755C348.81 117.378 348.173 116.262 347.388 116.262C346.603 116.262 345.967 117.378 345.967 118.755C345.967 120.133 346.603 121.249 347.388 121.249Z" fill="#FDA57D"/>
<path opacity="0.1" d="M339.558 150.431L340.269 148.293L342.401 149.721L339.558 150.431Z" fill="black"/>
<path opacity="0.1" d="M385.754 160.948C385.754 160.948 378.005 164.689 375.866 168.224L385.754 160.948Z" fill="black"/>
<path opacity="0.1" d="M382.262 137.62L381.552 139.752L380.124 137.62H382.262Z" fill="black"/>
<path d="M346.64 113.512H372.25C372.25 113.512 382.493 103.27 372.25 98.1451C370.026 97.0844 367.696 96.2611 365.299 95.6889C349.714 91.7364 334.914 104.622 336.915 120.57C337.389 124.31 338.742 127.427 341.516 128.874C352.332 134.572 346.64 113.512 346.64 113.512Z" fill="#333333"/>
</g>
<defs>
<linearGradient id="paint0_linear" x1="264.124" y1="215.348" x2="264.124" y2="122.608" gradientUnits="userSpaceOnUse">
<stop stop-color="#808080" stop-opacity="0.25"/>
<stop offset="0.54" stop-color="#808080" stop-opacity="0.12"/>
<stop offset="1" stop-color="#808080" stop-opacity="0.1"/>
</linearGradient>
<linearGradient id="paint1_linear" x1="162857" y1="243180" x2="162857" y2="96898.1" gradientUnits="userSpaceOnUse">
<stop stop-color="#808080" stop-opacity="0.25"/>
<stop offset="0.54" stop-color="#808080" stop-opacity="0.12"/>
<stop offset="1" stop-color="#808080" stop-opacity="0.1"/>
</linearGradient>
<linearGradient id="paint2_linear" x1="142197" y1="84088.1" x2="142197" y2="33190" gradientUnits="userSpaceOnUse">
<stop stop-color="#808080" stop-opacity="0.25"/>
<stop offset="0.54" stop-color="#808080" stop-opacity="0.12"/>
<stop offset="1" stop-color="#808080" stop-opacity="0.1"/>
</linearGradient>
<clipPath id="clip0">
<rect width="534.938" height="501.61" fill="white"/>
</clipPath>
</defs>
</svg>
