<svg width="501" height="594" viewBox="0 0 501 594" fill="none" xmlns="http://www.w3.org/2000/svg">
<g id="Group 3">
<g id="undraw_relaxation_1_wbr7 1" clip-path="url(#clip0)">
<path id="Vector" d="M236.342 289.899L250.651 288.555L209.656 2.69337e-05L194.264 1.66682L236.342 289.899Z" fill="url(#paint0_linear)"/>
<path id="sticklow" d="M209.718 42.1593L246.73 288.206L240.423 289.167L203.41 43.1207L209.718 42.1593Z" fill="#263238"/>
<path id="stickup" d="M208.069 43.6131L202.712 5.36909" stroke="#263238" stroke-width="8" stroke-miterlimit="10"/>
<path id="Vector_2" d="M8.97234 124.065C235.083 -70.0744 428.418 76.8184 428.418 76.8184L8.97234 124.065Z" fill="url(#paint1_linear)"/>
<path id="umbrella" d="M22.4413 118.626C232.969 -62.0092 413.102 74.8444 413.102 74.8444L22.4413 118.626Z" fill="#6C63FF"/>
<path id="Vector_3" d="M486.094 234.833L474.556 270.243L462.468 307.343L450.93 342.752L438.842 379.852L427.304 415.262L415.209 452.361L403.67 487.771L391.583 524.87L380.044 560.28L369.055 594.008L172.836 529.225L183.825 495.498L195.363 460.088L207.451 422.989L218.989 387.579L231.084 350.479L242.623 315.07L254.71 277.978L266.249 242.56L278.336 205.469L289.875 170.059L486.094 234.833Z" fill="url(#paint2_linear)"/>
<path id="Vector_4" d="M291.603 176.247L479.47 238.273L366.317 585.498L178.45 523.472L291.603 176.247Z" fill="#6C63FF"/>
<path id="Vector_5" opacity="0.5" d="M291.605 176.253L479.472 238.278L468.317 272.508L280.45 210.483L291.605 176.253Z" fill="white"/>
<path id="Vector_6" opacity="0.5" d="M268.763 246.347L456.63 308.373L445.475 342.602L257.608 280.577L268.763 246.347Z" fill="white"/>
<path id="Vector_7" opacity="0.5" d="M245.924 316.44L433.791 378.465L422.637 412.695L234.77 350.669L245.924 316.44Z" fill="white"/>
<path id="Vector_8" opacity="0.5" d="M223.082 386.534L410.949 448.559L399.795 482.789L211.928 420.764L223.082 386.534Z" fill="white"/>
<path id="Vector_9" opacity="0.5" d="M200.241 456.628L388.108 518.654L376.953 552.883L189.086 490.858L200.241 456.628Z" fill="white"/>
<path id="Vector_10" d="M330.862 325.478C330.862 325.478 293.835 277.087 321.536 263.637C349.237 250.188 378.106 257.938 378.106 257.938L375.183 266.902C375.183 266.902 304.61 274.299 349.001 314.225L330.862 325.478Z" fill="#FFE0D6"/>
<path id="Vector_11" d="M389.385 344.795C389.385 344.795 447.702 327.897 433.287 300.529C418.871 273.162 391.025 262.216 391.025 262.216L388.103 271.18C388.103 271.18 440.613 319.21 381.349 324.948L389.385 344.795Z" fill="#FFE0D6"/>
<path id="Vector_12" opacity="0.2" d="M430.852 299.731C418.963 277.187 397.97 265.773 390.98 262.462L391.056 262.216C391.056 262.216 418.864 273.2 433.279 300.529C447.694 327.859 389.377 344.795 389.377 344.795L388.82 343.413C398.657 340.218 443.68 324.11 430.852 299.731Z" fill="black"/>
<path id="Vector_13" opacity="0.2" d="M323.963 264.444C346.81 253.368 370.444 256.686 378.022 258.184L378.098 257.938C378.098 257.938 349.222 250.211 321.528 263.637C293.835 277.064 330.854 325.478 330.854 325.478L332.121 324.71C326.061 316.207 299.253 276.419 323.963 264.444Z" fill="black"/>
<path id="Vector_14" d="M365.456 318.76C341.304 310.786 328.147 284.615 336.07 260.305C343.992 235.995 369.993 222.752 394.145 230.726C418.297 238.7 431.454 264.871 423.532 289.181C415.609 313.491 389.608 326.734 365.456 318.76Z" fill="#FF7185"/>
<path id="Vector_15" d="M335.974 409.24C352.458 414.678 365.08 421.86 370.421 405.307L387.973 351.539C390.554 343.541 389.886 334.84 386.114 327.336C382.342 319.832 375.773 314.135 367.842 311.49C359.896 308.892 351.251 309.565 343.796 313.361C336.34 317.158 330.681 323.77 328.053 331.753L310.502 385.52C305.122 402.073 319.499 403.771 335.974 409.24Z" fill="#FF8976"/>
<g id="Group" opacity="0.2">
<path id="Vector_16" opacity="0.2" d="M333.548 408.433L334.761 408.84C330.694 407.534 326.786 406.421 323.314 405.23C326.504 406.252 329.976 407.258 333.548 408.433Z" fill="black"/>
<path id="Vector_17" opacity="0.2" d="M368.025 404.47L385.577 350.702C388.094 342.907 387.526 334.435 383.992 327.051C380.458 319.666 374.231 313.938 366.606 311.06C367.018 311.175 367.422 311.298 367.834 311.429C375.767 314.072 382.338 319.768 386.111 327.272C389.885 334.776 390.554 343.479 387.973 351.478L370.421 405.245C366.186 418.234 357.548 416.644 346.078 412.734C356.365 416.06 364.095 416.529 368.025 404.47Z" fill="black"/>
</g>
<path id="Vector_18" d="M309.067 389.945C309.067 389.945 271.125 422.912 270.911 451.47C270.919 456.142 270.621 460.809 270.018 465.442L265.859 506.152L283.129 510.952L289.836 459.935C290.213 457.078 291.297 454.363 292.988 452.039L307.693 431.76C309.275 429.58 311.501 427.96 314.054 427.132C316.607 426.305 319.354 426.311 321.903 427.152C323.631 427.723 325.217 428.661 326.554 429.903C327.891 431.144 328.947 432.661 329.651 434.349C330.355 436.037 330.691 437.858 330.635 439.688C330.579 441.518 330.133 443.315 329.328 444.957L314.462 475.251L300.726 539.334L317.766 544.956C317.766 544.956 332.082 495.513 344.102 472.401C356.121 449.289 368.59 409.616 368.59 409.616L309.067 389.945Z" fill="#5CAADE"/>
<path id="Vector_19" d="M371.151 298.971L372.507 299.418C375.71 300.476 377.455 303.948 376.405 307.172L372.242 319.945C371.192 323.169 367.743 324.926 364.539 323.868L363.183 323.42C359.979 322.363 358.234 318.891 359.285 315.666L363.447 302.894C364.498 299.669 367.947 297.913 371.151 298.971Z" fill="#FFE0D6"/>
<path id="Vector_20" opacity="0.2" d="M376.687 306.336C376.687 306.336 369.979 308.84 363.897 302.158L376.687 306.336Z" fill="black"/>
<path id="Vector_21" d="M369.973 304.9C353.426 299.437 344.412 281.506 349.839 264.851C355.267 248.196 373.081 239.122 389.628 244.586C406.175 250.049 415.189 267.979 409.762 284.635C404.334 301.29 386.52 310.363 369.973 304.9Z" fill="#FFE0D6"/>
<path id="Vector_22" d="M409.34 252.907C409.34 252.907 406.494 278.147 353.274 251.547L372.871 235.417L392.017 237.222L409.34 252.907Z" fill="#FF7185"/>
<path id="Vector_23" d="M366.11 286.481C365.522 288.278 368.773 291.858 373.687 293.494C378.602 295.13 383.333 294.162 383.921 292.357C384.508 290.552 380.731 288.593 375.809 286.98C370.887 285.367 366.697 284.714 366.11 286.481Z" fill="white"/>
<path id="Vector_24" opacity="0.1" d="M375.962 277.991L380.987 279.65C381.388 279.782 381.606 280.216 381.474 280.619L381.42 280.787C381.288 281.19 380.857 281.41 380.457 281.278L375.432 279.619C375.031 279.486 374.813 279.052 374.944 278.649L374.999 278.481C375.13 278.078 375.562 277.859 375.962 277.991Z" fill="black"/>
<path id="Vector_25" d="M395.695 272.761C394.802 272.466 394.315 271.499 394.608 270.6C394.901 269.701 395.862 269.211 396.755 269.506C397.648 269.801 398.135 270.769 397.842 271.668C397.549 272.566 396.588 273.056 395.695 272.761Z" fill="#383F4D"/>
<path id="Vector_26" d="M368.157 263.67C367.264 263.375 366.777 262.408 367.07 261.509C367.363 260.61 368.325 260.12 369.218 260.415C370.111 260.71 370.597 261.678 370.304 262.576C370.011 263.475 369.05 263.965 368.157 263.67Z" fill="#383F4D"/>
<path id="Vector_27" d="M406.288 270.481L403.945 277.678C403.693 278.445 403.152 279.081 402.438 279.449C401.724 279.817 400.894 279.887 400.129 279.645L388.118 275.681C387.356 275.428 386.724 274.883 386.359 274.164C385.993 273.445 385.923 272.611 386.164 271.841L388.507 264.644C388.759 263.877 389.3 263.241 390.014 262.873C390.728 262.505 391.558 262.435 392.323 262.677L404.334 266.641C405.096 266.894 405.728 267.439 406.093 268.158C406.459 268.876 406.529 269.711 406.288 270.481ZM390.079 275.028L398.855 277.924C399.62 278.167 400.449 278.096 401.163 277.728C401.877 277.361 402.419 276.724 402.67 275.958L404.242 271.126C404.484 270.356 404.414 269.522 404.048 268.803C403.683 268.084 403.051 267.539 402.289 267.286L393.513 264.39C392.748 264.147 391.919 264.218 391.205 264.586C390.491 264.954 389.949 265.59 389.698 266.356L388.126 271.188C387.885 271.96 387.957 272.796 388.326 273.515C388.694 274.234 389.33 274.778 390.094 275.028L390.079 275.028Z" fill="#E75F7E"/>
<path id="Vector_28" opacity="0.2" d="M393.393 263.877L402.776 266.975C404.21 267.449 404.991 269.002 404.521 270.445L402.506 276.627C402.036 278.07 400.492 278.856 399.059 278.383L389.676 275.285C388.242 274.812 387.461 273.258 387.932 271.815L389.946 265.633C390.416 264.19 391.96 263.404 393.393 263.877Z" fill="#E75F7E"/>
<path id="Vector_29" d="M387.759 268.691L388.522 268.246C388.477 268.177 383.356 260.918 376.626 264.344L377.007 265.112C383.013 262.04 387.599 268.43 387.759 268.691Z" fill="#E75F7E"/>
<path id="Vector_30" d="M349.321 270.827C347.914 270.704 347.006 267.925 347.291 264.62C347.577 261.315 348.948 258.736 350.355 258.859C351.762 258.982 352.67 261.761 352.385 265.066C352.099 268.371 350.728 270.95 349.321 270.827Z" fill="#FFE0D6"/>
<path id="Vector_31" d="M406.66 289.763C405.455 289.024 405.867 286.128 407.582 283.295C409.297 280.462 411.664 278.765 412.87 279.504C414.076 280.243 413.663 283.139 411.948 285.972C410.234 288.805 407.866 290.503 406.66 289.763Z" fill="#FFE0D6"/>
<path id="Vector_32" opacity="0.2" d="M408.043 251.732L409.34 252.907C409.34 252.907 406.494 278.147 353.274 251.547L355.235 249.934C397.046 270.066 406.143 256.886 408.043 251.732Z" fill="white"/>
<path id="Vector_33" d="M378.77 261.394L376.427 268.592C376.175 269.358 375.634 269.994 374.92 270.362C374.206 270.73 373.376 270.801 372.611 270.558L360.6 266.595C359.838 266.341 359.206 265.796 358.841 265.078C358.475 264.359 358.405 263.524 358.646 262.754L360.959 255.526C361.21 254.759 361.752 254.123 362.466 253.755C363.18 253.387 364.009 253.317 364.774 253.56L376.786 257.523C377.169 257.645 377.525 257.843 377.832 258.104C378.14 258.364 378.393 258.684 378.577 259.044C378.761 259.403 378.873 259.796 378.906 260.2C378.939 260.603 378.893 261.009 378.77 261.394ZM362.561 265.942L371.337 268.837C372.102 269.08 372.931 269.01 373.645 268.642C374.359 268.274 374.901 267.638 375.153 266.871L376.725 262.04C376.966 261.27 376.896 260.435 376.53 259.716C376.165 258.997 375.533 258.452 374.771 258.199L365.995 255.303C365.23 255.061 364.401 255.131 363.687 255.499C362.973 255.867 362.431 256.503 362.18 257.27L360.608 262.101C360.367 262.872 360.438 263.708 360.805 264.427C361.172 265.146 361.806 265.69 362.569 265.942L362.561 265.942Z" fill="#E75F7E"/>
<path id="Vector_34" opacity="0.2" d="M365.856 254.786L375.239 257.884C376.672 258.357 377.453 259.911 376.983 261.354L374.968 267.536C374.498 268.979 372.955 269.765 371.521 269.292L362.138 266.194C360.705 265.72 359.924 264.167 360.394 262.724L362.408 256.542C362.879 255.099 364.422 254.313 365.856 254.786Z" fill="#E75F7E"/>
<g id="Group_2" opacity="0.2">
<path id="Vector_35" opacity="0.2" d="M340.851 471.364C352.87 448.252 365.339 408.579 365.339 408.579L368.574 409.647C368.574 409.647 356.105 449.312 344.086 472.432C332.067 495.552 317.766 544.956 317.766 544.956L314.531 543.889C314.531 543.889 328.839 494.446 340.851 471.364Z" fill="black"/>
</g>
<path id="Vector_36" d="M317.766 544.956L312.425 561.233L287.082 559.182C287.082 559.182 283.548 553.505 289.737 551.032C295.926 548.559 300.734 539.311 300.734 539.311L317.766 544.956Z" fill="#FFFAFA"/>
<path id="Vector_37" d="M283.617 506.605L285.242 521.652L261.227 530.055C261.227 530.055 255.725 526.291 260.395 521.521C265.066 516.751 265.737 506.336 265.737 506.336L283.617 506.605Z" fill="#FFFAFA"/>
<path id="Vector_38" opacity="0.2" d="M316.141 544.426L317.759 544.964L312.425 561.233L287.082 559.182C287.082 559.182 286.982 559.028 286.853 558.759L310.807 560.695L316.141 544.426Z" fill="black"/>
<path id="Vector_39" opacity="0.1" d="M0.637891 326.13C-1.4291 286.695 108.81 248.783 246.864 241.452C384.918 234.121 498.509 260.147 500.576 299.582C502.643 339.017 392.404 376.929 254.35 384.26C116.295 391.591 2.70488 365.566 0.637891 326.13Z" fill="black"/>
</g>
</g>
<defs>
<linearGradient id="paint0_linear" x1="167.085" y1="253.77" x2="281.411" y2="41.1057" gradientUnits="userSpaceOnUse">
<stop stop-color="#808080" stop-opacity="0.25"/>
<stop offset="0.54" stop-color="#808080" stop-opacity="0.12"/>
<stop offset="1" stop-color="#808080" stop-opacity="0.1"/>
</linearGradient>
<linearGradient id="paint1_linear" x1="-262393" y1="-98291.4" x2="-247354" y2="-126268" gradientUnits="userSpaceOnUse">
<stop stop-color="#808080" stop-opacity="0.25"/>
<stop offset="0.54" stop-color="#808080" stop-opacity="0.12"/>
<stop offset="1" stop-color="#808080" stop-opacity="0.1"/>
</linearGradient>
<linearGradient id="paint2_linear" x1="-254947" y1="285815" x2="-189581" y2="87830" gradientUnits="userSpaceOnUse">
<stop stop-color="#808080" stop-opacity="0.25"/>
<stop offset="0.54" stop-color="#808080" stop-opacity="0.12"/>
<stop offset="1" stop-color="#808080" stop-opacity="0.1"/>
</linearGradient>
<clipPath id="clip0">
<rect width="500" height="594" fill="white" transform="matrix(-1 -8.74228e-08 -8.74228e-08 1 500.616 4.57764e-05)"/>
</clipPath>
</defs>
</svg>