<svg width="92" height="87" viewBox="0 0 92 87" fill="none" xmlns="http://www.w3.org/2000/svg">
<path d="M91.552 33.1759C91.375 32.6329 90.906 32.2369 90.341 32.1549L60.718 27.8499L47.47 1.0069C47.218 0.494898 46.696 0.170898 46.125 0.170898C45.554 0.170898 45.033 0.494898 44.78 1.0069L31.532 27.8499L1.90897 32.1549C1.34397 32.2369 0.874965 32.6329 0.697965 33.1759C0.521965 33.7189 0.668965 34.3149 1.07797 34.7139L22.513 55.6079L17.453 85.1099C17.357 85.6729 17.588 86.2419 18.05 86.5779C18.312 86.7669 18.621 86.8639 18.932 86.8639C19.171 86.8639 19.411 86.8069 19.63 86.6919L46.125 72.7619L72.62 86.6919C73.125 86.9579 73.737 86.9139 74.2 86.5779C74.662 86.2419 74.893 85.6739 74.797 85.1099L69.736 55.6079L91.172 34.7139C91.581 34.3149 91.729 33.7189 91.552 33.1759ZM67.078 54.0099C66.724 54.3549 66.563 54.8509 66.646 55.3379L71.326 82.6219L46.823 69.7399C46.386 69.5109 45.865 69.5109 45.427 69.7399L20.924 82.6219L25.603 55.3379C25.686 54.8519 25.525 54.3549 25.171 54.0099L5.34897 34.6869L32.744 30.7059C33.232 30.6349 33.655 30.3279 33.873 29.8859L46.125 5.0599L58.377 29.8849C58.595 30.3269 59.018 30.6349 59.506 30.7049L86.902 34.6859L67.078 54.0099Z" fill="#311B92"/>
<path d="M47.4699 24.0948C47.2179 23.5828 46.6959 23.2588 46.1249 23.2588C45.5539 23.2588 45.0329 23.5828 44.7799 24.0948L38.7209 36.3708L25.1729 38.3398C24.6079 38.4218 24.1389 38.8178 23.9619 39.3608C23.7859 39.9038 23.9329 40.4998 24.3419 40.8988L34.1449 50.4548L31.8319 63.9468C31.7359 64.5098 31.9669 65.0788 32.4289 65.4148C32.6909 65.6038 32.9999 65.7008 33.3109 65.7008C33.5499 65.7008 33.7899 65.6438 34.0089 65.5288L46.1259 59.1588L58.2429 65.5288C58.7479 65.7948 59.3599 65.7508 59.8229 65.4148C60.2849 65.0788 60.5159 64.5108 60.4199 63.9468L58.1059 50.4548L67.9099 40.8988C68.3189 40.5008 68.4659 39.9038 68.2899 39.3608C68.1129 38.8178 67.6439 38.4218 67.0789 38.3398L53.5309 36.3708L47.4699 24.0948ZM55.4459 48.8558C55.0919 49.2008 54.9309 49.6968 55.0139 50.1838L56.9479 61.4578L46.8229 56.1348C46.3859 55.9058 45.8639 55.9058 45.4269 56.1348L35.3019 61.4578L37.2349 50.1838C37.3179 49.6978 37.1569 49.2008 36.8029 48.8558L28.6119 40.8718L39.9319 39.2268C40.4199 39.1558 40.8429 38.8488 41.0609 38.4068L46.1239 28.1488L51.1869 38.4068C51.4049 38.8488 51.8279 39.1568 52.3159 39.2268L63.6359 40.8718L55.4459 48.8558Z" fill="#311B92"/>
</svg>
